<?xml version="1.0" encoding="utf-8"?>
<!-- Generator: Adobe Illustrator 19.2.1, SVG Export Plug-In . SVG Version: 6.00 Build 0)  -->
<svg version="1.1" id="layer" xmlns="http://www.w3.org/2000/svg" xmlns:xlink="http://www.w3.org/1999/xlink" x="0px" y="0px"
	 viewBox="0 0 652 652" style="enable-background:new 0 0 652 652;" xml:space="preserve">
<style type="text/css">
	.st0{fill:#0072A5;}
	.st1{fill:#FFDA0F;}
</style>
<g>
	<path class="st0" d="M342.1,312.8c3.4,0,6.9-0.4,10.5-1.1c-24.2-6.9-40.9-28.8-40.9-54.2c0-25.4,16.7-47.3,40.9-54.2
		c-3.5-0.7-7.1-1-10.5-1c-30.5,0-55.3,24.8-55.3,55.3C286.8,288,311.6,312.8,342.1,312.8"/>
	<path class="st1" d="M332.6,257.5c0-17.2,11.2-32.2,27.5-37.1c-2.1-0.4-4.3-0.6-6.4-0.6c-20.8,0-37.7,16.9-37.7,37.7
		c0,20.8,16.9,37.7,37.7,37.7c2.1,0,4.2-0.2,6.4-0.6C343.8,289.7,332.6,274.7,332.6,257.5"/>
	<path class="st0" d="M308.8,306.7c-16.3-11.1-26.1-29.4-26.2-49.1v-0.2v-0.2c0.1-19.7,9.8-37.9,26.2-49c0.1-0.1,0.1-0.1,0.2-0.2
		c8-5.2,10.2-5.6,10.6-5.7H309h-35.8h-3.4v110.1h3.4H309h10.6c-0.4,0-2.6-0.5-10.6-5.6C308.9,306.8,308.9,306.8,308.8,306.7"/>
	<path class="st0" d="M319.6,202.5L319.6,202.5L319.6,202.5z"/>
	<path class="st0" d="M365.5,202.2v47.9h-26.3c-0.5,2.4-0.7,4.9-0.7,7.4c0,2.5,0.2,5,0.7,7.5h26.3v47.6h17.7V202.2H365.5z"/>
	<path class="st0" d="M51.9,357.3v15.6c0,3.9-1.2,7-3.6,9.4c-2.4,2.4-5.6,3.6-9.9,3.6c-4.2,0-7.4-1.3-9.6-3.9
		c-2-2.4-2.9-5.7-2.9-10.1v-8.1h4.4v8c0,6.9,3.3,11.3,8.8,11.3c2.3,0,4.3-0.9,5.9-2.8c1.7-2.1,2.6-4.8,2.6-8.1c0-5,0-7.6,0-7.7
		l-0.8-5.9L51.9,357.3z M41.4,363.9c0,1.5-1.2,2.7-2.7,2.7c-1.5,0-2.7-1.1-2.7-2.7c0-1.5,1.2-2.7,2.7-2.7
		C40.3,361.2,41.4,362.4,41.4,363.9"/>
	<path class="st0" d="M38.4,386c-4.3,0-7.5-1.3-9.7-4c-2-2.4-3-5.8-3-10.2v-8.3h4.7v8.1c0,7,3.2,11.1,8.7,11.1
		c2.3,0,4.2-0.9,5.8-2.8c1.7-2.1,2.6-4.7,2.6-8c0-4.6,0-7.5,0-7.7l-0.8-6l5.5-1.3v15.8c0,3.9-1.2,7.1-3.7,9.5
		C46,384.8,42.6,386,38.4,386 M26,364v7.9c0,4.2,1,7.6,2.9,10c2.1,2.6,5.3,3.9,9.5,3.9c4.1,0,7.4-1.2,9.8-3.5
		c2.4-2.3,3.6-5.4,3.6-9.3v-15.4l-4.9,1.2l0.8,5.7c0,0.1,0,1.8,0,7.7c0,3.4-0.9,6-2.7,8.2c-1.6,1.9-3.6,2.9-6,2.9
		c-5.6,0-9-4.3-9-11.5V364H26z M38.7,366.8c-1.6,0-2.8-1.2-2.8-2.9c0-1.6,1.3-2.8,2.8-2.8c1.6,0,2.9,1.2,2.9,2.9
		C41.6,365.5,40.3,366.8,38.7,366.8 M38.7,361.4c-1.4,0-2.5,1.1-2.5,2.5c0,1.5,1.1,2.6,2.5,2.6c1.4,0,2.6-1.1,2.6-2.5
		C41.3,362.5,40.2,361.4,38.7,361.4"/>
	<path class="st0" d="M67.6,376.1h-3.5c-4,0-6.6-2.5-6.6-6.6v-15.1l-0.8-5.7l5.2-1.2v21c0,2.4,1.1,3.6,3.2,3.6h2.4V376.1z"/>
	<path class="st0" d="M67.8,376.2h-3.6c-4.2,0-6.7-2.6-6.7-6.8v-15.1l-0.8-5.8l5.5-1.3v21.2c0,2.4,1,3.5,3,3.5h2.6V376.2z M57,348.7
		l0.7,5.6v15.2c0,4,2.5,6.5,6.4,6.5h3.3v-3.7h-2.3c-2.2,0-3.4-1.3-3.4-3.8v-20.8L57,348.7z"/>
	<rect x="66.4" y="372.1" class="st0" width="16.4" height="4"/>
	<path class="st0" d="M82.9,376.2H66.2v-4.3h16.7V376.2z M66.5,375.9h16.1v-3.7H66.5V375.9z"/>
	<path class="st0" d="M117.8,376.1H81.5v-4h6.6v-17.4l-0.7-5.5l5.6-0.5l-0.5,5.9v12.9c1.3-2.4,3.2-4.6,5.7-6.6c3-2.5,6-3.8,8.9-3.8
		c3.1,0,5.6,0.7,7.7,2.2c2,1.5,3,3.4,3,6V376.1z M113.3,372.1V366c0-3.4-2.4-5.1-7.2-5.1c-2.5,0-5.4,1.5-8.5,4.5
		c-2.7,2.5-4.3,4.7-5,6.6H113.3z"/>
	<path class="st0" d="M117.9,376.2H81.4v-4.3h6.6v-17.2l-0.7-5.6l5.9-0.5l0,0.2l-0.5,5.9v12.3c1.3-2.2,3.1-4.3,5.5-6.2
		c3-2.5,6-3.8,9-3.8c3.2,0,5.7,0.7,7.8,2.2c2.1,1.5,3.1,3.5,3.1,6.1V376.2z M81.7,375.9h36v-10.7c0-2.5-1-4.4-3-5.8
		c-2-1.4-4.4-2.1-7.6-2.1c-2.9,0-5.7,1.2-8.8,3.7c-2.5,2-4.4,4.2-5.7,6.6l-0.3,0.6v-13.5l0.5-5.7l-5.2,0.5l0.6,5.3v17.5h-6.6V375.9z
		 M113.4,372.2H92.4l0.1-0.2c0.7-1.9,2.3-4.1,5-6.7c3.2-3,6.1-4.6,8.7-4.6c4.9,0,7.3,1.8,7.3,5.2V372.2z M92.8,371.9h20.3V366
		c0-3.3-2.4-4.9-7-4.9c-2.5,0-5.3,1.5-8.4,4.5C95.1,368,93.5,370.1,92.8,371.9"/>
	<path class="st0" d="M135.4,376.1h-3.6c-0.8,0-1.6-0.1-2.2-0.3c-0.5,5.2-3.7,8.5-9.5,10.2l-1-1.7c4.1-1.3,6.2-4.1,6.2-8.6l0-11.2
		l-0.9-6l5.3-1.2v11.1c0,2.4,1.1,3.7,3.2,3.7h2.5V376.1z"/>
	<path class="st0" d="M120,386.1l-1.1-2l0.2-0.1c4.1-1.3,6.1-4,6.1-8.4l0-11.2l-0.9-6.1l5.6-1.3v11.3c0,2.4,1,3.5,3.1,3.5h2.7v4.3
		h-3.7c-0.8,0-1.5-0.1-2.1-0.3c-0.6,5.1-3.8,8.5-9.6,10.1L120,386.1z M119.3,384.3l0.8,1.5c5.6-1.6,8.8-4.9,9.3-10l0-0.2l0.2,0.1
		c0.6,0.2,1.3,0.3,2.2,0.3h3.4v-3.7h-2.3c-2.3,0-3.4-1.3-3.4-3.9v-10.9l-5,1.1l0.9,5.8l0,11.2C125.4,380,123.4,382.9,119.3,384.3"/>
	<rect x="134.1" y="372.1" class="st0" width="16.4" height="4"/>
	<path class="st0" d="M150.6,376.2H134v-4.3h16.7V376.2z M134.3,375.9h16.1v-3.7h-16.1V375.9z"/>
	<rect x="149.2" y="372.1" class="st0" width="16.4" height="4"/>
	<path class="st0" d="M165.8,376.2h-16.7v-4.3h16.7V376.2z M149.4,375.9h16.1v-3.7h-16.1V375.9z"/>
	<rect x="164.4" y="372.1" class="st0" width="16.4" height="4"/>
	<path class="st0" d="M180.9,376.2h-16.7v-4.3h16.7V376.2z M164.5,375.9h16.1v-3.7h-16.1V375.9z"/>
	<rect x="179.5" y="372.1" class="st0" width="16.4" height="4"/>
	<path class="st0" d="M196,376.2h-16.7v-4.3H196V376.2z M179.7,375.9h16.1v-3.7h-16.1V375.9z"/>
	<path class="st0" d="M233.8,376.1h-2.4c-1.8,0-3.3-0.4-4.5-1.3c-1.1,0.9-2.5,1.3-4.2,1.3c-2.4,0-4.3-0.8-6-2.5
		c-1.2,1.7-3,2.5-5.4,2.5c-2.3,0-4.3-0.9-6-2.6c-0.2,0.3-0.5,0.6-0.8,0.9c-1.2,1.1-2.8,1.7-4.8,1.7h-5.2v-4h4.1
		c2.1,0,3.2-1.2,3.2-3.5l0.1-8.6l4.4-1v11.1v0.5c1.1,1,2.4,1.5,3.9,1.5c2.1,0,3.2-1.2,3.2-3.5V360l4.4-1v11.5
		c1.1,1.1,2.4,1.7,3.8,1.7c2.1,0,3.2-1.2,3.2-3.5v-4.4l-0.8-5.8l5.3-1.2v11.3c0,2.3,1.1,3.5,3.2,3.5h1.3V376.1z"/>
	<path class="st0" d="M234,376.2h-2.5c-1.8,0-3.2-0.4-4.5-1.3c-1.1,0.9-2.5,1.3-4.2,1.3c-2.3,0-4.3-0.8-5.9-2.5
		c-1.2,1.6-3,2.5-5.4,2.5c-2.2,0-4.2-0.9-6-2.5c-0.2,0.3-0.5,0.5-0.7,0.8c-1.3,1.2-2.9,1.7-4.9,1.7h-5.3v-4.3h4.3c2.1,0,3-1.1,3-3.4
		l0.1-8.7l4.7-1.1v11.7c1.1,1,2.3,1.4,3.7,1.4c2,0,3-1.1,3-3.4v-8.8l4.7-1.1v11.6c1.1,1,2.3,1.6,3.7,1.6c2,0,3-1.1,3-3.4v-4.4
		l-0.9-5.9l5.6-1.3v11.5c0,2.2,1,3.3,3,3.3h1.5V376.2z M227,374.6L227,374.6c1.3,1,2.7,1.4,4.5,1.4h2.2v-3.7h-1.2
		c-2.2,0-3.4-1.2-3.4-3.6v-11.1l-5,1.1l0.8,5.6v4.4c0,2.4-1.1,3.7-3.3,3.7c-1.5,0-2.8-0.6-3.9-1.7l0,0v-11.4l-4.1,0.9v8.5
		c0,2.4-1.1,3.7-3.3,3.7c-1.5,0-2.9-0.5-4-1.6l0,0v-11.5l-4,0.9l-0.1,8.5c0,2.4-1.1,3.7-3.4,3.7h-3.9v3.7h5c1.9,0,3.5-0.5,4.7-1.7
		c0.3-0.3,0.6-0.6,0.8-0.9l0.1-0.1l0.1,0.1c1.7,1.7,3.7,2.6,5.9,2.6c2.4,0,4.1-0.8,5.3-2.5l0.1-0.2l0.1,0.1c1.6,1.7,3.5,2.5,5.9,2.5
		C224.4,375.9,225.8,375.5,227,374.6L227,374.6z"/>
	<path class="st0" d="M249.6,376.1h-3c-1.8,0-3.2-0.4-4.4-1.4c-1.1,0.9-2.5,1.4-4.2,1.4h-5.4v-4h4.3c2.1,0,3.2-1.2,3.2-3.6v-13.8
		l-0.8-6l5.3-1.2v21c0,2.4,1.1,3.6,3.2,3.6h1.9V376.1z"/>
	<path class="st0" d="M249.8,376.2h-3.1c-1.8,0-3.2-0.4-4.4-1.3c-1.1,0.9-2.5,1.3-4.2,1.3h-5.6v-4.3h4.4c2.1,0,3-1.1,3-3.5v-13.8
		l-0.9-6.1l5.6-1.3v21.2c0,2.4,1,3.5,3,3.5h2.1V376.2z M242.2,374.5L242.2,374.5c1.2,1,2.6,1.4,4.4,1.4h2.8v-3.7h-1.8
		c-2.2,0-3.4-1.3-3.4-3.8v-20.8l-5,1.1l0.8,5.8v13.9c0,2.5-1.1,3.8-3.4,3.8h-4.1v3.7h5.3C239.7,375.9,241.1,375.5,242.2,374.5
		L242.2,374.5z"/>
	<path class="st0" d="M263.3,369.5c0,4.1-2.5,6.6-6.6,6.6h-8.3v-4h7.3c2.2,0,3.3-1.2,3.3-3.6v-14.2l-0.8-5.9l5.2-1.2V369.5z"/>
	<path class="st0" d="M256.7,376.2h-8.5v-4.3h7.4c2.1,0,3.1-1.1,3.1-3.5v-14.2l-0.8-6l5.5-1.3v22.5
		C263.5,373.6,260.9,376.2,256.7,376.2 M248.5,375.9h8.2c4.1,0,6.5-2.4,6.5-6.5v-22.1l-4.9,1.2l0.7,5.7v14.2c0,2.5-1.1,3.8-3.4,3.8
		h-7.1V375.9z"/>
	<path class="st0" d="M308.2,376.1H303c-0.8,0-1.6-0.1-2.4-0.3c-1.1,6.2-6,10.1-13.3,10.1c-4.2,0-7.4-1.3-9.6-3.9
		c-2-2.4-2.9-5.7-2.9-10.1v-8.1h4.4v8c0,6.9,3.3,11.3,8.8,11.3c2.3,0,4.3-0.9,5.9-2.8c1.7-2.1,2.6-4.8,2.6-8.1v-7.7l-0.8-5.9
		l5.2-1.2v10.3c0,3,1.1,4.5,3.2,4.5h4.1V376.1z M290.4,363.9c0,1.5-1.2,2.7-2.7,2.7c-1.5,0-2.7-1.1-2.7-2.7c0-1.5,1.2-2.7,2.7-2.7
		C289.2,361.2,290.4,362.4,290.4,363.9"/>
	<path class="st0" d="M287.3,386c-4.3,0-7.5-1.3-9.7-4c-2-2.4-3-5.8-3-10.2v-8.3h4.7v8.1c0,7,3.2,11.1,8.7,11.1
		c2.3,0,4.2-0.9,5.8-2.8c1.7-2.1,2.6-4.7,2.6-8v-7.7l-0.9-6l5.5-1.3v10.5c0,2.9,1,4.3,3.1,4.3h4.3v4.3H303c-0.8,0-1.6-0.1-2.3-0.3
		C299.5,382.3,294.5,386,287.3,386 M274.9,364v7.9c0,4.2,1,7.6,2.9,10c2.1,2.6,5.3,3.9,9.5,3.9c7.1,0,12-3.7,13.1-10l0-0.2l0.2,0
		c0.7,0.2,1.5,0.3,2.4,0.3h5v-3.7h-3.9c-2.3,0-3.4-1.6-3.4-4.6v-10.1l-4.9,1.2l0.8,5.7l0,7.7c0,3.4-0.9,6-2.7,8.2
		c-1.6,1.9-3.6,2.9-6,2.9c-5.6,0-9-4.3-9-11.5V364H274.9z M287.6,366.8c-1.6,0-2.8-1.2-2.8-2.9c0-1.6,1.3-2.8,2.8-2.8
		c1.6,0,2.9,1.2,2.9,2.9C290.5,365.5,289.2,366.8,287.6,366.8 M287.6,361.4c-1.4,0-2.5,1.1-2.5,2.5c0,1.5,1.1,2.6,2.5,2.6
		c1.4,0,2.6-1.1,2.6-2.5C290.2,362.5,289.1,361.4,287.6,361.4"/>
	<rect x="306" y="372.1" class="st0" width="16.4" height="4"/>
	<path class="st0" d="M322.6,376.2h-16.7v-4.3h16.7V376.2z M306.2,375.9h16.1v-3.7h-16.1V375.9z"/>
	<path class="st0" d="M326.4,383.3c0,1.4-1.2,2.7-2.8,2.7c-1.4,0-2.7-1.1-2.7-2.7c0-1.5,1.3-2.7,2.7-2.7
		C325.1,380.5,326.4,381.7,326.4,383.3 M338.4,376.1h-3.3c-1.8,0-3.2-0.4-4.4-1.3c-1.2,0.9-2.6,1.3-4.3,1.3h-5.3v-4h4.1
		c2.2,0,3.2-1.2,3.2-3.5V364l-0.9-5.7l5.3-1.2v11.5c0,2.4,1.1,3.5,3.3,3.5h2.2V376.1z M333.5,383.3c0,1.4-1.2,2.7-2.7,2.7
		c-1.5,0-2.7-1.1-2.7-2.7c0-1.5,1.2-2.7,2.7-2.7C332.2,380.5,333.5,381.7,333.5,383.3"/>
	<path class="st0" d="M330.8,386.1c-1.6,0-2.8-1.2-2.8-2.9c0-1.6,1.3-2.8,2.8-2.8c1.6,0,2.9,1.3,2.9,2.9
		C333.6,384.8,332.3,386.1,330.8,386.1 M330.8,380.7c-1.4,0-2.5,1.1-2.5,2.5c0,1.5,1.1,2.6,2.5,2.6c1.5,0,2.6-1.3,2.6-2.5
		C333.3,381.8,332.2,380.7,330.8,380.7 M323.6,386.1c-1.6,0-2.9-1.3-2.9-2.9c0-1.5,1.3-2.8,2.9-2.8c1.6,0,2.9,1.3,2.9,2.9
		C326.6,384.8,325.2,386.1,323.6,386.1 M323.6,380.7c-1.4,0-2.6,1.2-2.6,2.5c0,1.6,1.3,2.6,2.6,2.6c1.4,0,2.6-1.2,2.6-2.5
		C326.2,381.8,325.1,380.7,323.6,380.7 M338.6,376.2h-3.5c-1.8,0-3.2-0.4-4.4-1.3c-1.2,0.9-2.6,1.3-4.3,1.3H321v-4.3h4.3
		c2.1,0,3.1-1.1,3.1-3.4V364l-0.9-5.9l5.6-1.2v11.7c0,2.3,1,3.4,3.1,3.4h2.4V376.2z M330.7,374.6L330.7,374.6
		c1.2,0.9,2.6,1.4,4.4,1.4h3.2v-3.7h-2.1c-2.3,0-3.4-1.2-3.4-3.7v-11.3l-5,1.1l0.9,5.6v4.6c0,2.4-1.1,3.7-3.4,3.7h-4v3.7h5.1
		C328.1,375.9,329.5,375.5,330.7,374.6L330.7,374.6z"/>
	<rect x="337.2" y="372.1" class="st0" width="16.4" height="4"/>
	<path class="st0" d="M353.7,376.2H337v-4.3h16.7V376.2z M337.3,375.9h16.1v-3.7h-16.1V375.9z"/>
	<rect x="352.3" y="372.1" class="st0" width="16.4" height="4"/>
	<path class="st0" d="M368.8,376.2h-16.7v-4.3h16.7V376.2z M352.5,375.9h16.1v-3.7h-16.1V375.9z"/>
	<rect x="367.4" y="372.1" class="st0" width="16.4" height="4"/>
	<path class="st0" d="M384,376.2h-16.7v-4.3H384V376.2z M367.6,375.9h16.1v-3.7h-16.1V375.9z"/>
	<path class="st0" d="M421.7,376.1h-2.4c-1.8,0-3.3-0.4-4.5-1.3c-1.1,0.9-2.5,1.3-4.2,1.3c-2.4,0-4.3-0.8-6-2.5
		c-1.2,1.7-3,2.5-5.4,2.5c-2.3,0-4.3-0.9-6-2.6c-0.2,0.3-0.5,0.6-0.8,0.9c-1.2,1.1-2.8,1.7-4.8,1.7h-5.2v-4h4.1
		c2.1,0,3.2-1.2,3.2-3.5l0.1-8.6l4.4-1v11.1v0.5c1.1,1,2.4,1.5,3.9,1.5c2.1,0,3.2-1.2,3.2-3.5V360l4.4-1v11.5
		c1.1,1.1,2.4,1.7,3.8,1.7c2.1,0,3.2-1.2,3.2-3.5v-4.4l-0.8-5.8l5.3-1.2v11.3c0,2.3,1.1,3.5,3.2,3.5h1.3V376.1z"/>
	<path class="st0" d="M421.9,376.2h-2.5c-1.8,0-3.2-0.4-4.4-1.3c-1.1,0.9-2.5,1.3-4.2,1.3c-2.3,0-4.3-0.8-5.9-2.5
		c-1.2,1.6-3,2.5-5.4,2.5c-2.2,0-4.2-0.9-6-2.5c-0.2,0.3-0.5,0.5-0.7,0.8l0,0c-1.3,1.2-2.8,1.7-4.9,1.7h-5.3v-4.3h4.3
		c2.1,0,3-1.1,3-3.4l0.1-8.7l4.7-1.1v11.7c1.1,1,2.3,1.4,3.7,1.4c2,0,3-1.1,3-3.4v-8.8l4.7-1.1v11.6c1.1,1,2.3,1.6,3.7,1.6
		c2,0,3-1.1,3-3.4v-4.4l-0.9-5.9l5.6-1.3v11.5c0,2.2,1,3.3,3,3.3h1.5V376.2z M414.9,374.6L414.9,374.6c1.3,1,2.7,1.4,4.5,1.4h2.2
		v-3.7h-1.2c-2.2,0-3.4-1.2-3.4-3.6v-11.1l-5,1.1l0.8,5.6l0,4.4c0,2.4-1.1,3.7-3.3,3.7c-1.5,0-2.8-0.6-3.9-1.7l0,0v-11.4l-4.1,0.9
		v8.5c0,2.4-1.1,3.7-3.3,3.7c-1.5,0-2.9-0.5-4-1.6l-0.1,0v-11.5l-4,0.9l-0.1,8.5c0,2.4-1.1,3.7-3.4,3.7h-3.9v3.7h5
		c1.9,0,3.5-0.5,4.7-1.7c0.3-0.3,0.6-0.6,0.8-0.9l0.1-0.1l0.1,0.1c1.7,1.7,3.7,2.6,5.9,2.6c2.4,0,4.1-0.8,5.3-2.5l0.1-0.2l0.1,0.1
		c1.6,1.7,3.5,2.5,5.9,2.5C412.3,375.9,413.7,375.5,414.9,374.6L414.9,374.6z"/>
	<path class="st0" d="M448.3,376.1h-27.8v-4h19.2c-1.1-2.4-2.5-5-4.5-7.5c-2.4-3.3-4.6-5-6.5-5c-1.3,0-2,0.8-2,2.5
		c0,0.8,0.2,1.8,0.6,3l-4.6,0.5c0.5-5.8,3.5-9.3,7.4-9.3c3,0,6.1,2,9.2,5.9c2.4,3.1,4.2,6.4,5.5,10h3.3V376.1z"/>
	<path class="st0" d="M448.4,376.2h-28.1v-4.3h19.1c-1.1-2.5-2.6-4.9-4.3-7.3c-2.4-3.3-4.5-4.9-6.3-4.9c-1.2,0-1.8,0.8-1.8,2.3
		c0,0.7,0.2,1.7,0.6,2.9l0.1,0.2l-5,0.6l0-0.2c0.5-5.8,3.5-9.5,7.6-9.5c3.1,0,6.2,2,9.3,5.9c2.4,3.1,4.2,6.4,5.5,9.9h3.4V376.2z
		 M420.7,375.9h27.5v-3.7h-3.3l0-0.1c-1.3-3.5-3.1-6.8-5.5-9.9c-3-3.9-6.1-5.8-9-5.8c-3.9,0-6.7,3.5-7.3,9l4.2-0.5
		c-0.4-1.2-0.6-2.1-0.6-2.8c0-2.2,1.2-2.7,2.2-2.7c1.9,0,4.1,1.7,6.6,5.1c1.8,2.5,3.4,5,4.5,7.6l0.1,0.2h-19.3V375.9z"/>
	<path class="st0" d="M462,369.5c0,4.1-2.5,6.6-6.6,6.6h-8.3v-4h7.3c2.2,0,3.3-1.2,3.3-3.6v-14.2l-0.8-5.9l5.2-1.2V369.5z"/>
	<path class="st0" d="M455.4,376.2h-8.5v-4.3h7.4c2.1,0,3.1-1.1,3.1-3.5v-14.2l-0.8-6l5.5-1.3v22.5
		C462.2,373.6,459.6,376.2,455.4,376.2 M447.2,375.9h8.2c4.1,0,6.5-2.4,6.5-6.5v-22.1l-4.9,1.2l0.7,5.7v14.2c0,2.5-1.1,3.8-3.4,3.8
		h-7.1V375.9z"/>
	<polygon class="st0" points="472.5,347.3 472,353.3 472,376.1 467.6,376.1 467.6,353.3 467,347.8 	"/>
	<path class="st0" d="M472.2,376.2h-4.7v-22.9l-0.7-5.7l5.9-0.5l-0.5,6.1V376.2z M467.8,375.9h4.1v-22.7l0.5-5.7l-5.2,0.4l0.6,5.4
		V375.9z"/>
	<path class="st0" d="M497.3,376.1h-3.6c-0.8,0-1.6-0.1-2.2-0.3c-0.5,5.2-3.7,8.5-9.5,10.1l-0.9-1.7c4.1-1.3,6.1-4.1,6.1-8.6l0-11.2
		l-0.9-6l5.3-1.2v11.1c0,2.4,1.1,3.7,3.2,3.7h2.5V376.1z M491.2,350.1c0,1.5-1.2,2.7-2.7,2.7c-1.5,0-2.7-1.1-2.7-2.7
		c0-1.6,1.2-2.7,2.7-2.7C489.9,347.4,491.2,348.6,491.2,350.1"/>
	<path class="st0" d="M481.9,386.1l-1.1-2l0.2-0.1c4.1-1.3,6-4,6-8.4l0-11.2l-0.9-6.1l5.6-1.3v11.3c0,2.4,1,3.5,3.1,3.5h2.7v4.3
		h-3.7c-0.8,0-1.5-0.1-2.1-0.3c-0.6,5.1-3.8,8.5-9.6,10.1L481.9,386.1z M481.3,384.3l0.8,1.5c5.6-1.6,8.8-4.9,9.3-10l0-0.2l0.2,0.1
		c0.6,0.2,1.3,0.3,2.2,0.3h3.4v-3.7h-2.3c-2.3,0-3.4-1.3-3.4-3.9v-10.9l-5,1.1l0.9,5.8l0,11.2C487.3,380,485.3,382.9,481.3,384.3
		 M488.5,353c-1.6,0-2.8-1.2-2.8-2.8c0-1.6,1.2-2.9,2.8-2.9c1.6,0,2.9,1.3,2.9,2.9C491.3,351.7,490.1,353,488.5,353 M488.5,347.6
		c-1.4,0-2.5,1.1-2.5,2.6c0,1.4,1.1,2.5,2.5,2.5c1.4,0,2.6-1.1,2.6-2.5C491,348.7,489.9,347.6,488.5,347.6"/>
	<rect x="496" y="372.1" class="st0" width="16.4" height="4"/>
	<path class="st0" d="M512.6,376.2h-16.7v-4.3h16.7V376.2z M496.2,375.9h16.1v-3.7h-16.1V375.9z"/>
	<rect x="511.2" y="372.1" class="st0" width="16.4" height="4"/>
	<path class="st0" d="M527.7,376.2H511v-4.3h16.7V376.2z M511.3,375.9h16.1v-3.7h-16.1V375.9z"/>
	<rect x="526.3" y="372.1" class="st0" width="16.4" height="4"/>
	<path class="st0" d="M542.8,376.2h-16.7v-4.3h16.7V376.2z M526.4,375.9h16.1v-3.7h-16.1V375.9z"/>
	<path class="st0" d="M571.3,376.1h-29.9v-4h25.5v-6.5c0-3.4-2.5-5.1-7.5-5.1h-15.7c5.4-5.2,9.5-9.6,12.3-13h6.3l-6.3,5.2l-4,4h8.3
		c6.9,0,10.9,3.1,10.9,8.2V376.1z"/>
	<path class="st0" d="M571.4,376.2h-30.2v-4.3h25.5v-6.3c0-3.3-2.4-5-7.4-5h-16.1l0.3-0.3c5.2-5.1,9.4-9.4,12.3-13l0-0.1h6.8
		l-6.7,5.5l-3.7,3.7h7.9c7,0,11.1,3.1,11.1,8.3V376.2z M541.6,375.9h29.6v-11.1c0-5-4-8-10.8-8h-8.7l4.2-4.3l6-4.9h-5.8
		c-2.9,3.5-6.9,7.8-12,12.7h15.3c5.1,0,7.7,1.8,7.7,5.3v6.7h-25.5V375.9z"/>
	<path class="st0" d="M588.9,376.1h-3.6c-0.8,0-1.6-0.1-2.2-0.3c-0.5,5.2-3.7,8.5-9.5,10.2l-1-1.7c4.1-1.3,6.2-4.1,6.2-8.6l0-11.2
		l-0.9-6l5.3-1.2v11.1c0,2.4,1.1,3.7,3.3,3.7h2.5V376.1z"/>
	<path class="st0" d="M573.5,386.1l-1.1-2l0.2-0.1c4.1-1.3,6.1-4,6.1-8.4l0-11.2l-0.9-6.1l5.6-1.3v11.3c0,2.4,1,3.5,3.1,3.5h2.7v4.3
		h-3.7c-0.8,0-1.5-0.1-2.1-0.3c-0.6,5.1-3.8,8.5-9.6,10.1L573.5,386.1z M572.8,384.3l0.8,1.5c5.6-1.6,8.8-4.9,9.3-10l0-0.2l0.2,0.1
		c0.6,0.2,1.3,0.3,2.2,0.3h3.4v-3.7h-2.3c-2.3,0-3.4-1.3-3.4-3.9v-10.9l-5,1.1l0.9,5.8l0,11.2C578.9,380,576.8,382.9,572.8,384.3"/>
	<rect x="587.6" y="372.1" class="st0" width="16.4" height="4"/>
	<path class="st0" d="M604.1,376.2h-16.7v-4.3h16.7V376.2z M587.8,375.9h16.1v-3.7h-16.1V375.9z"/>
	<path class="st0" d="M625.5,357.4l-0.4,4.6v6.2c0,5.2-3.3,7.8-10,7.8h-12.4v-4h6.8c-0.9-1.5-1.3-3.1-1.3-4.8c0-3.3,1-5.9,2.9-7.9
		c2-2,4.6-3,8.1-3C621.3,356.4,623.4,356.8,625.5,357.4 M620.8,362.4l-0.4-2.6c-0.7-0.2-1.5-0.3-2.3-0.3c-3.7,0-5.6,2.3-5.6,7
		c0,3.7,1.3,5.6,3.8,5.6c3.2,0,4.8-2,4.8-6C621.2,365.1,621.1,363.8,620.8,362.4"/>
	<path class="st0" d="M615.2,376.2h-12.6v-4.3h6.7c-0.8-1.5-1.2-3-1.2-4.6c0-3.3,1-6,3-8c2-2,4.7-3,8.2-3c2.1,0,4.3,0.3,6.4,1l0.1,0
		l0,0.1l-0.4,4.6v6.2C625.3,373.6,621.9,376.2,615.2,376.2 M602.9,375.9h12.3c6.5,0,9.8-2.6,9.8-7.7v-6.2l0.4-4.5
		c-2.1-0.6-4.2-1-6.2-1c-3.4,0-6,1-7.9,2.9c-1.9,2-2.9,4.5-2.9,7.8c0,1.6,0.4,3.2,1.3,4.7l0.1,0.2h-6.9V375.9z M616.4,372.2
		c-2.6,0-4-1.9-4-5.8c0-4.7,1.9-7.1,5.8-7.1c0.9,0,1.7,0.1,2.4,0.3l0.1,0l0.4,2.7c0.2,1.4,0.3,2.6,0.3,3.8
		C621.3,370.2,619.7,372.2,616.4,372.2 M618.2,359.6c-3.7,0-5.5,2.2-5.5,6.8c0,3.6,1.2,5.5,3.7,5.5c3.1,0,4.6-2,4.6-5.8
		c0-1.1-0.1-2.4-0.3-3.7l-0.3-2.5C619.8,359.7,619,359.6,618.2,359.6"/>
	<polygon class="st0" points="28.1,408.9 32.1,408.9 32.1,421.5 32.4,421.5 45.4,408.9 50.9,408.9 36.8,422.4 51.9,438.2 
		46.1,438.2 32.4,423.5 32.1,423.5 32.1,438.2 28.1,438.2 	"/>
	<path class="st0" d="M52.6,438.5h-6.7L32.4,424v14.5h-4.6v-29.9h4.6v12.5l12.8-12.5h6.4l-14.5,13.8L52.6,438.5z M46.2,437.8h4.9
		l-14.8-15.4l13.8-13.2h-4.6l-12.9,12.6h-0.8v-12.6h-3.3v28.6h3.3v-14.6h0.8L46.2,437.8z"/>
	<path class="st0" d="M56.4,411.5c0-0.7,0.3-1.4,0.8-1.9c0.5-0.5,1.2-0.8,1.9-0.8c0.7,0,1.4,0.3,1.9,0.8c0.5,0.5,0.8,1.2,0.8,1.9
		s-0.3,1.4-0.8,1.9c-0.5,0.5-1.2,0.8-1.9,0.8c-0.7,0-1.4-0.3-1.9-0.8C56.7,412.9,56.4,412.3,56.4,411.5 M57.3,418.6H61v19.6h-3.7
		V418.6z"/>
	<path class="st0" d="M61.3,438.5H57v-20.2h4.3V438.5z M57.6,437.8h3.1v-19h-3.1V437.8z M59.1,414.6c-0.8,0-1.5-0.3-2.1-0.9
		c-0.6-0.6-0.9-1.3-0.9-2.1c0-0.8,0.3-1.5,0.9-2.1c0.6-0.6,1.3-0.9,2.1-0.9c0.8,0,1.5,0.3,2.1,0.9c0.6,0.6,0.9,1.3,0.9,2.1
		c0,0.8-0.3,1.5-0.9,2.1C60.7,414.3,60,414.6,59.1,414.6 M59.1,409.1c-0.7,0-1.2,0.2-1.7,0.7c-0.5,0.5-0.7,1-0.7,1.7
		c0,0.7,0.2,1.2,0.7,1.7c0.5,0.5,1,0.7,1.7,0.7c0.7,0,1.2-0.2,1.7-0.7c0.5-0.5,0.7-1,0.7-1.7c0-0.7-0.2-1.2-0.7-1.7
		C60.4,409.4,59.8,409.1,59.1,409.1"/>
	<path class="st0" d="M69.9,418.6h3.7v3h0.1c0.5-1,1.3-1.9,2.4-2.5c1.2-0.6,2.5-1,4-1c0.9,0,1.8,0.1,2.7,0.4
		c0.9,0.3,1.6,0.7,2.3,1.3c0.6,0.6,1.2,1.4,1.5,2.3c0.4,0.9,0.6,2.1,0.6,3.4v12.6h-3.7v-11.6c0-0.9-0.1-1.7-0.4-2.3
		c-0.2-0.6-0.6-1.2-1-1.6c-0.4-0.4-0.9-0.7-1.4-0.9c-0.5-0.2-1.1-0.3-1.7-0.3c-0.8,0-1.5,0.1-2.1,0.4c-0.7,0.2-1.2,0.6-1.7,1.2
		c-0.5,0.5-0.9,1.2-1.2,2c-0.3,0.8-0.4,1.8-0.4,2.9v10.1h-3.7V418.6z"/>
	<path class="st0" d="M87.6,438.5h-4.3v-11.9c0-0.9-0.1-1.6-0.4-2.2c-0.2-0.6-0.5-1.1-0.9-1.5c-0.4-0.4-0.8-0.6-1.3-0.8
		c-1.2-0.4-2.5-0.3-3.6,0.1c-0.6,0.2-1.2,0.6-1.6,1.1c-0.5,0.5-0.8,1.1-1.1,1.9c-0.3,0.8-0.4,1.7-0.4,2.8v10.4h-4.3v-20.2H74v2.3
		c0.5-0.7,1.2-1.3,2.1-1.8c1.2-0.7,2.6-1,4.2-1c1,0,1.9,0.2,2.8,0.5c0.9,0.3,1.7,0.8,2.4,1.4c0.7,0.6,1.2,1.5,1.6,2.4
		c0.4,1,0.6,2.2,0.6,3.5V438.5z M83.9,437.8H87v-12.3c0-1.2-0.2-2.3-0.6-3.3c-0.4-0.9-0.9-1.7-1.5-2.2c-0.6-0.6-1.3-1-2.2-1.3
		c-0.8-0.3-1.7-0.4-2.6-0.4c-1.5,0-2.8,0.3-3.9,0.9c-1.1,0.6-1.9,1.4-2.3,2.4l-0.1,0.2h-0.6v-3h-3.1v19h3.1v-9.8
		c0-1.2,0.1-2.2,0.4-3c0.3-0.9,0.7-1.6,1.2-2.2c0.5-0.6,1.2-1,1.9-1.3c1.2-0.5,2.7-0.5,4-0.1c0.6,0.2,1.1,0.5,1.5,0.9
		c0.4,0.4,0.8,1,1.1,1.7c0.3,0.7,0.4,1.5,0.4,2.4V437.8z"/>
	<path class="st0" d="M115.6,438c0,1.5-0.3,2.8-0.8,4.1c-0.5,1.2-1.2,2.3-2.2,3.2c-0.9,0.9-2.1,1.6-3.4,2.1
		c-1.3,0.5-2.8,0.7-4.4,0.7c-1.9,0-3.6-0.3-5.1-0.8c-1.6-0.5-3-1.4-4.4-2.7l2.5-3.1c1,1,2,1.8,3.1,2.4c1.1,0.5,2.4,0.8,3.8,0.8
		c1.4,0,2.5-0.2,3.4-0.6c0.9-0.4,1.6-0.9,2.2-1.6c0.5-0.6,0.9-1.4,1.1-2.2c0.2-0.8,0.3-1.6,0.3-2.5v-2.9h-0.1
		c-0.7,1.2-1.7,2.1-2.9,2.6c-1.2,0.6-2.5,0.8-3.9,0.8c-1.4,0-2.8-0.3-4-0.8c-1.2-0.5-2.3-1.2-3.2-2.1c-0.9-0.9-1.6-2-2.1-3.2
		c-0.5-1.2-0.7-2.6-0.7-4s0.2-2.8,0.7-4c0.5-1.3,1.1-2.3,2-3.3c0.9-0.9,1.9-1.7,3.1-2.2c1.2-0.5,2.6-0.8,4.1-0.8
		c1.3,0,2.6,0.3,3.9,0.9c1.3,0.6,2.2,1.4,3,2.4h0.1v-2.8h3.7V438z M105.4,421.5c-1,0-1.9,0.2-2.7,0.5c-0.8,0.3-1.5,0.8-2,1.4
		c-0.6,0.6-1,1.3-1.3,2.1c-0.3,0.8-0.5,1.8-0.5,2.8c0,2,0.6,3.6,1.7,4.8c1.2,1.2,2.7,1.8,4.7,1.8c2,0,3.6-0.6,4.7-1.8
		c1.2-1.2,1.7-2.8,1.7-4.8c0-1-0.2-1.9-0.5-2.8c-0.3-0.8-0.7-1.6-1.3-2.1c-0.6-0.6-1.2-1.1-2-1.4
		C107.3,421.7,106.4,421.5,105.4,421.5"/>
	<path class="st0" d="M104.9,448.4c-1.9,0-3.7-0.3-5.2-0.8c-1.6-0.5-3.1-1.5-4.6-2.8l-0.2-0.2l2.9-3.7l0.2,0.3c0.9,1,2,1.8,3,2.3
		c1.1,0.5,2.3,0.8,3.7,0.8c1.3,0,2.4-0.2,3.3-0.6c0.9-0.4,1.6-0.9,2.1-1.5c0.5-0.6,0.9-1.3,1.1-2c0.2-0.8,0.3-1.6,0.3-2.4v-2.1
		c-0.7,0.9-1.6,1.6-2.6,2.1c-1.3,0.6-2.6,0.9-4,0.9c-1.5,0-2.8-0.3-4.1-0.8c-1.3-0.5-2.4-1.3-3.3-2.2c-0.9-0.9-1.6-2-2.1-3.3
		c-0.5-1.3-0.8-2.6-0.8-4.1c0-1.5,0.2-2.9,0.7-4.1c0.5-1.3,1.2-2.4,2.1-3.4c0.9-1,2-1.7,3.3-2.3c1.3-0.5,2.7-0.8,4.2-0.8
		c1.4,0,2.7,0.3,4,0.9c1,0.5,1.9,1.1,2.6,1.9v-2.3h4.3V438c0,1.5-0.3,2.9-0.8,4.2c-0.5,1.3-1.3,2.4-2.2,3.3c-1,0.9-2.1,1.6-3.5,2.2
		C108,448.1,106.5,448.4,104.9,448.4 M95.7,444.5c1.3,1.2,2.7,2,4.1,2.5c1.5,0.5,3.2,0.8,5,0.8c1.6,0,3-0.2,4.3-0.7
		c1.3-0.5,2.4-1.2,3.3-2c0.9-0.9,1.6-1.9,2.1-3.1c0.5-1.2,0.7-2.5,0.7-4v-19.1h-3.1v2.8h-0.6l-0.1-0.1c-0.7-1-1.6-1.8-2.8-2.3
		c-1.2-0.6-2.5-0.8-3.7-0.8c-1.5,0-2.8,0.3-4,0.8c-1.2,0.5-2.2,1.2-3,2.1c-0.8,0.9-1.5,2-1.9,3.2c-0.5,1.2-0.7,2.5-0.7,3.9
		c0,1.4,0.2,2.7,0.7,3.9c0.5,1.2,1.1,2.2,2,3.1c0.8,0.9,1.9,1.5,3.1,2c1.2,0.5,2.5,0.7,3.9,0.7c1.3,0,2.6-0.3,3.7-0.8
		c1.2-0.5,2.1-1.4,2.8-2.5l0.1-0.2h0.6v3.2c0,0.9-0.1,1.7-0.3,2.5c-0.2,0.9-0.6,1.6-1.2,2.3c-0.6,0.7-1.3,1.2-2.3,1.6
		c-1,0.4-2.1,0.6-3.6,0.6c-1.5,0-2.8-0.3-4-0.8c-1.1-0.5-2.1-1.2-3-2.2L95.7,444.5z M105.4,435.2c-2.1,0-3.7-0.6-4.9-1.9
		c-1.2-1.3-1.8-2.9-1.8-5c0-1,0.2-2,0.5-2.9c0.3-0.9,0.8-1.6,1.3-2.3c0.6-0.6,1.3-1.1,2.1-1.5c0.8-0.4,1.8-0.5,2.8-0.5
		c1,0,2,0.2,2.8,0.5c0.8,0.4,1.6,0.9,2.1,1.5c0.6,0.6,1,1.4,1.3,2.3c0.3,0.9,0.5,1.8,0.5,2.9c0,2.1-0.6,3.7-1.8,5
		C109.1,434.6,107.5,435.2,105.4,435.2 M105.4,421.9c-0.9,0-1.8,0.2-2.6,0.5c-0.8,0.3-1.4,0.8-1.9,1.3c-0.5,0.6-0.9,1.2-1.2,2
		c-0.3,0.8-0.4,1.7-0.4,2.6c0,1.9,0.6,3.4,1.7,4.6c1.1,1.1,2.6,1.7,4.5,1.7c1.9,0,3.4-0.6,4.5-1.7c1.1-1.1,1.7-2.7,1.7-4.6
		c0-1-0.1-1.8-0.4-2.6c-0.3-0.8-0.7-1.5-1.2-2c-0.5-0.6-1.2-1-1.9-1.3C107.2,422,106.3,421.9,105.4,421.9"/>
	<polygon class="st0" points="139.7,408.9 143.6,408.9 143.6,421 158.8,421 158.8,408.9 162.8,408.9 162.8,438.2 158.8,438.2 
		158.8,424.8 143.6,424.8 143.6,438.2 139.7,438.2 	"/>
	<path class="st0" d="M163.1,438.5h-4.6v-13.4h-14.5v13.4h-4.6v-29.9h4.6v12.2h14.5v-12.2h4.6V438.5z M159.1,437.8h3.3v-28.6h-3.3
		v12.1h-15.8v-12.1H140v28.6h3.3v-13.4h15.8V437.8z"/>
	<path class="st0" d="M189.7,438.2H186v-3h-0.1c-0.5,1.1-1.3,1.9-2.4,2.5c-1.2,0.6-2.5,1-4,1c-1,0-1.9-0.1-2.7-0.4
		c-0.9-0.3-1.6-0.7-2.3-1.3c-0.6-0.6-1.2-1.4-1.6-2.3c-0.4-0.9-0.6-2.1-0.6-3.4v-12.6h3.7v11.6c0,0.9,0.1,1.7,0.4,2.3
		c0.2,0.6,0.6,1.2,1,1.6c0.4,0.4,0.9,0.7,1.4,0.9c0.5,0.2,1.1,0.3,1.7,0.3c0.8,0,1.5-0.1,2.1-0.4c0.7-0.2,1.2-0.6,1.7-1.2
		c0.5-0.5,0.9-1.2,1.2-2c0.3-0.8,0.4-1.8,0.4-2.9v-10.1h3.7V438.2z"/>
	<path class="st0" d="M179.5,439c-1,0-1.9-0.2-2.8-0.5c-0.9-0.3-1.7-0.8-2.4-1.4c-0.7-0.6-1.2-1.5-1.6-2.4c-0.4-1-0.6-2.2-0.6-3.5
		v-12.9h4.3v11.9c0,0.9,0.1,1.6,0.3,2.2c0.2,0.6,0.5,1.1,0.9,1.5c0.4,0.4,0.8,0.6,1.3,0.8c1.2,0.4,2.5,0.3,3.6-0.1
		c0.6-0.2,1.2-0.6,1.6-1.1c0.5-0.5,0.8-1.1,1.1-1.9c0.3-0.8,0.4-1.7,0.4-2.8v-10.4h4.3v20.2h-4.3v-2.3c-0.5,0.7-1.2,1.3-2.1,1.8
		C182.4,438.6,181,439,179.5,439 M172.7,418.9v12.3c0,1.2,0.2,2.3,0.6,3.3c0.4,0.9,0.9,1.7,1.5,2.2s1.3,1,2.1,1.3
		c0.8,0.3,1.7,0.4,2.6,0.4c1.5,0,2.8-0.3,3.9-0.9c1.1-0.6,1.9-1.4,2.3-2.4l0.1-0.2h0.6v3h3.1v-19h-3.1v9.8c0,1.2-0.1,2.2-0.4,3
		c-0.3,0.9-0.7,1.6-1.2,2.2c-0.5,0.6-1.1,1-1.9,1.3c-1.2,0.5-2.7,0.5-4,0.1c-0.6-0.2-1.1-0.5-1.5-0.9c-0.4-0.4-0.8-1-1.1-1.7
		c-0.3-0.7-0.4-1.5-0.4-2.4v-11.3H172.7z"/>
	<path class="st0" d="M208.8,423.5c-0.4-0.6-1-1-1.6-1.4c-0.6-0.4-1.4-0.6-2.4-0.6c-0.9,0-1.6,0.2-2.3,0.6c-0.6,0.4-1,0.9-1,1.6
		c0,0.6,0.2,1,0.6,1.4c0.4,0.4,0.8,0.6,1.3,0.9c0.5,0.2,1.1,0.4,1.6,0.5c0.6,0.1,1.1,0.2,1.5,0.3c0.8,0.2,1.5,0.4,2.3,0.7
		c0.7,0.3,1.3,0.6,1.8,1.1c0.5,0.4,0.9,1,1.2,1.6c0.3,0.6,0.4,1.4,0.4,2.3c0,1.1-0.2,2-0.7,2.8c-0.5,0.8-1.1,1.4-1.8,1.9
		c-0.7,0.5-1.6,0.9-2.5,1.1c-0.9,0.2-1.9,0.3-2.9,0.3c-1.6,0-3.1-0.2-4.3-0.7c-1.2-0.5-2.3-1.4-3.3-2.7l2.8-2.3
		c0.6,0.6,1.3,1.1,2,1.6c0.7,0.5,1.7,0.7,2.7,0.7c0.5,0,0.9,0,1.4-0.1c0.5-0.1,0.9-0.2,1.3-0.5c0.4-0.2,0.7-0.5,0.9-0.8
		c0.2-0.3,0.3-0.7,0.3-1.1c0-0.6-0.2-1-0.5-1.4c-0.3-0.4-0.8-0.6-1.2-0.8c-0.5-0.2-1-0.4-1.5-0.5c-0.5-0.1-1-0.2-1.4-0.3
		c-0.8-0.2-1.6-0.4-2.3-0.7c-0.7-0.2-1.3-0.6-1.9-1c-0.6-0.4-1-0.9-1.3-1.6c-0.3-0.6-0.5-1.4-0.5-2.4c0-1,0.2-1.9,0.6-2.7
		c0.4-0.8,1-1.4,1.7-1.9c0.7-0.5,1.5-0.9,2.4-1.1c0.9-0.3,1.8-0.4,2.7-0.4c1.3,0,2.6,0.2,3.8,0.7c1.2,0.5,2.2,1.3,2.9,2.5
		L208.8,423.5z"/>
	<path class="st0" d="M204.2,439c-1.7,0-3.1-0.3-4.4-0.8c-1.3-0.5-2.4-1.5-3.4-2.8l-0.2-0.2l3.3-2.7l0.2,0.2c0.6,0.6,1.3,1.1,2,1.6
		c0.7,0.4,1.6,0.6,2.6,0.6c0.5,0,0.9,0,1.4-0.1c0.4-0.1,0.8-0.2,1.2-0.4c0.3-0.2,0.6-0.4,0.8-0.7c0.2-0.3,0.3-0.6,0.3-0.9
		c0-0.5-0.1-0.8-0.4-1.1c-0.3-0.3-0.7-0.6-1.1-0.8c-0.5-0.2-1-0.4-1.5-0.5c-0.5-0.1-1-0.2-1.4-0.3c-0.8-0.2-1.6-0.4-2.3-0.7
		c-0.7-0.3-1.4-0.6-2-1c-0.6-0.4-1.1-1-1.4-1.7c-0.4-0.7-0.5-1.5-0.5-2.5c0-1.1,0.2-2,0.7-2.8c0.5-0.8,1.1-1.5,1.8-2
		c0.7-0.5,1.6-0.9,2.5-1.2c2.2-0.6,4.6-0.5,6.7,0.4c1.3,0.5,2.3,1.4,3,2.6l0.1,0.2l-3.4,2.5l-0.2-0.2c-0.4-0.5-0.9-1-1.5-1.3
		c-0.6-0.3-1.3-0.5-2.2-0.5c-0.8,0-1.5,0.2-2.1,0.5c-0.6,0.3-0.8,0.8-0.8,1.4c0,0.5,0.1,0.9,0.5,1.2c0.3,0.3,0.8,0.6,1.2,0.8
		c0.5,0.2,1,0.4,1.6,0.5c0.6,0.1,1.1,0.2,1.5,0.3c0.8,0.2,1.6,0.4,2.3,0.7c0.7,0.3,1.4,0.7,1.9,1.1c0.5,0.5,1,1.1,1.3,1.7
		c0.3,0.7,0.5,1.5,0.5,2.4c0,1.2-0.2,2.2-0.7,3c-0.5,0.8-1.1,1.5-1.9,2c-0.8,0.5-1.7,0.9-2.6,1.1C206.2,438.9,205.2,439,204.2,439
		 M197.1,435.2c0.9,1.1,1.9,1.9,3,2.4c1.2,0.5,2.6,0.7,4.2,0.7c0.9,0,1.9-0.1,2.8-0.3c0.9-0.2,1.7-0.6,2.4-1
		c0.7-0.5,1.3-1.1,1.7-1.8c0.4-0.7,0.7-1.6,0.7-2.7c0-0.9-0.1-1.6-0.4-2.2c-0.3-0.6-0.6-1.1-1.1-1.5c-0.5-0.4-1.1-0.8-1.7-1
		c-0.7-0.3-1.4-0.5-2.2-0.7c-0.4-0.1-0.9-0.2-1.5-0.3c-0.6-0.1-1.2-0.3-1.7-0.5c-0.5-0.2-1-0.5-1.4-0.9c-0.4-0.4-0.7-1-0.7-1.6
		c0-0.8,0.4-1.5,1.1-1.9c0.7-0.4,1.5-0.6,2.4-0.6c1,0,1.8,0.2,2.5,0.6c0.6,0.3,1.1,0.7,1.5,1.2l2.4-1.8c-0.7-1-1.5-1.7-2.6-2.1
		c-2-0.8-4.2-0.9-6.3-0.4c-0.9,0.2-1.6,0.6-2.3,1.1c-0.7,0.5-1.2,1.1-1.6,1.8c-0.4,0.7-0.6,1.6-0.6,2.5c0,0.9,0.2,1.6,0.5,2.2
		c0.3,0.6,0.7,1.1,1.2,1.5c0.5,0.4,1.1,0.7,1.8,0.9c0.7,0.2,1.5,0.5,2.2,0.6c0.4,0.1,0.9,0.2,1.4,0.3c0.5,0.1,1.1,0.3,1.6,0.5
		c0.5,0.2,1,0.5,1.3,0.9c0.4,0.4,0.6,1,0.6,1.6c0,0.5-0.1,0.9-0.4,1.3c-0.3,0.4-0.6,0.6-1,0.9c-0.4,0.2-0.9,0.4-1.4,0.5
		c-0.5,0.1-1,0.2-1.5,0.2c-1.1,0-2.1-0.3-2.9-0.8c-0.7-0.4-1.3-0.9-1.9-1.5L197.1,435.2z"/>
	<path class="st0" d="M230.1,423.5c-0.4-0.6-1-1-1.6-1.4c-0.6-0.4-1.4-0.6-2.4-0.6c-0.9,0-1.6,0.2-2.3,0.6c-0.6,0.4-1,0.9-1,1.6
		c0,0.6,0.2,1,0.6,1.4c0.4,0.4,0.8,0.6,1.3,0.9c0.5,0.2,1.1,0.4,1.6,0.5c0.6,0.1,1.1,0.2,1.5,0.3c0.8,0.2,1.5,0.4,2.3,0.7
		c0.7,0.3,1.3,0.6,1.8,1.1c0.5,0.4,0.9,1,1.2,1.6c0.3,0.6,0.4,1.4,0.4,2.3c0,1.1-0.2,2-0.7,2.8c-0.5,0.8-1.1,1.4-1.8,1.9
		c-0.7,0.5-1.6,0.9-2.5,1.1c-0.9,0.2-1.9,0.3-2.9,0.3c-1.6,0-3.1-0.2-4.3-0.7c-1.2-0.5-2.3-1.4-3.3-2.7l2.8-2.3
		c0.6,0.6,1.3,1.1,2,1.6c0.7,0.5,1.7,0.7,2.7,0.7c0.5,0,0.9,0,1.4-0.1c0.5-0.1,0.9-0.2,1.3-0.5c0.4-0.2,0.7-0.5,0.9-0.8
		c0.2-0.3,0.3-0.7,0.3-1.1c0-0.6-0.2-1-0.5-1.4c-0.3-0.4-0.8-0.6-1.2-0.8c-0.5-0.2-1-0.4-1.5-0.5c-0.5-0.1-1-0.2-1.4-0.3
		c-0.8-0.2-1.6-0.4-2.3-0.7c-0.7-0.2-1.3-0.6-1.9-1c-0.6-0.4-1-0.9-1.3-1.6c-0.3-0.6-0.5-1.4-0.5-2.4c0-1,0.2-1.9,0.6-2.7
		c0.4-0.8,1-1.4,1.7-1.9c0.7-0.5,1.5-0.9,2.4-1.1c0.9-0.3,1.8-0.4,2.7-0.4c1.3,0,2.6,0.2,3.8,0.7c1.2,0.5,2.2,1.3,2.9,2.5
		L230.1,423.5z"/>
	<path class="st0" d="M225.6,439c-1.7,0-3.1-0.3-4.4-0.8c-1.3-0.5-2.4-1.5-3.4-2.8l-0.2-0.2l3.3-2.7l0.2,0.2c0.6,0.6,1.3,1.1,2,1.6
		c0.7,0.4,1.6,0.6,2.6,0.6c0.5,0,0.9,0,1.4-0.1c0.4-0.1,0.8-0.2,1.2-0.4c0.3-0.2,0.6-0.4,0.8-0.7c0.2-0.3,0.3-0.6,0.3-0.9
		c0-0.5-0.1-0.8-0.4-1.1c-0.3-0.3-0.7-0.6-1.1-0.8c-0.5-0.2-1-0.4-1.5-0.5c-0.5-0.1-1-0.2-1.4-0.3c-0.8-0.2-1.6-0.4-2.3-0.7
		c-0.7-0.3-1.4-0.6-2-1c-0.6-0.4-1.1-1-1.4-1.7c-0.4-0.7-0.5-1.5-0.5-2.5c0-1.1,0.2-2,0.7-2.8c0.5-0.8,1.1-1.5,1.8-2
		c0.7-0.5,1.6-0.9,2.5-1.2c2.2-0.6,4.6-0.5,6.7,0.4c1.3,0.5,2.3,1.4,3,2.6l0.1,0.2l-3.4,2.5l-0.2-0.2c-0.4-0.5-0.9-1-1.5-1.3
		c-0.6-0.3-1.3-0.5-2.2-0.5c-0.8,0-1.5,0.2-2.1,0.5c-0.6,0.3-0.8,0.8-0.8,1.4c0,0.5,0.1,0.9,0.5,1.2c0.3,0.3,0.8,0.6,1.2,0.8
		c0.5,0.2,1,0.4,1.6,0.5c0.6,0.1,1.1,0.2,1.5,0.3c0.8,0.2,1.6,0.4,2.3,0.7c0.7,0.3,1.4,0.7,1.9,1.1c0.5,0.5,1,1.1,1.3,1.7
		c0.3,0.7,0.5,1.5,0.5,2.4c0,1.2-0.2,2.2-0.7,3c-0.5,0.8-1.1,1.5-1.9,2c-0.8,0.5-1.7,0.9-2.6,1.1C227.6,438.9,226.6,439,225.6,439
		 M218.5,435.2c0.9,1.1,1.9,1.9,3,2.4c1.2,0.5,2.6,0.7,4.2,0.7c0.9,0,1.9-0.1,2.8-0.3c0.9-0.2,1.7-0.6,2.4-1
		c0.7-0.5,1.3-1.1,1.7-1.8c0.4-0.7,0.7-1.6,0.7-2.7c0-0.9-0.1-1.6-0.4-2.2c-0.3-0.6-0.6-1.1-1.1-1.5c-0.5-0.4-1.1-0.8-1.7-1
		c-0.7-0.3-1.4-0.5-2.2-0.7c-0.4-0.1-0.9-0.2-1.5-0.3c-0.6-0.1-1.2-0.3-1.7-0.5c-0.5-0.2-1-0.5-1.4-0.9c-0.4-0.4-0.7-1-0.7-1.6
		c0-0.8,0.4-1.5,1.1-1.9c0.7-0.4,1.5-0.6,2.4-0.6c1,0,1.8,0.2,2.5,0.6c0.6,0.3,1.1,0.7,1.5,1.2l2.4-1.8c-0.7-1-1.5-1.7-2.6-2.1
		c-2-0.8-4.2-0.9-6.3-0.4c-0.9,0.2-1.6,0.6-2.3,1.1c-0.7,0.5-1.2,1.1-1.6,1.8c-0.4,0.7-0.6,1.6-0.6,2.5c0,0.9,0.2,1.6,0.5,2.2
		c0.3,0.6,0.7,1.1,1.2,1.5c0.5,0.4,1.1,0.7,1.8,0.9c0.7,0.2,1.5,0.5,2.2,0.6c0.4,0.1,0.9,0.2,1.4,0.3c0.5,0.1,1.1,0.3,1.6,0.5
		c0.5,0.2,1,0.5,1.3,0.9c0.4,0.4,0.6,1,0.6,1.6c0,0.5-0.1,0.9-0.4,1.3c-0.3,0.4-0.6,0.6-1,0.9c-0.4,0.2-0.9,0.4-1.4,0.5
		c-0.5,0.1-1,0.2-1.5,0.2c-1.1,0-2.1-0.3-2.9-0.8c-0.7-0.4-1.3-0.9-1.9-1.5L218.5,435.2z"/>
	<path class="st0" d="M243.9,429.7c0,0.9,0.2,1.6,0.6,2.3s0.9,1.3,1.5,1.8c0.6,0.5,1.3,0.9,2.1,1.2c0.8,0.3,1.6,0.4,2.5,0.4
		c1.2,0,2.2-0.3,3-0.8c0.9-0.5,1.6-1.2,2.4-2.1l2.8,2.2c-2.1,2.7-5,4-8.7,4c-1.5,0-2.9-0.3-4.2-0.8c-1.3-0.5-2.3-1.2-3.2-2.2
		c-0.9-0.9-1.5-2-2-3.3c-0.5-1.3-0.7-2.6-0.7-4.1c0-1.5,0.3-2.8,0.8-4.1c0.5-1.3,1.2-2.3,2.1-3.3c0.9-0.9,2-1.6,3.2-2.2
		c1.2-0.5,2.6-0.8,4-0.8c1.7,0,3.2,0.3,4.4,0.9c1.2,0.6,2.2,1.4,3,2.4c0.8,1,1.3,2.1,1.7,3.3c0.3,1.2,0.5,2.5,0.5,3.7v1.3H243.9z
		 M255.6,426.7c0-0.8-0.2-1.6-0.4-2.3c-0.2-0.7-0.6-1.3-1.1-1.8c-0.5-0.5-1.1-0.9-1.8-1.2c-0.7-0.3-1.5-0.4-2.5-0.4
		c-0.9,0-1.7,0.2-2.5,0.5c-0.8,0.3-1.4,0.8-1.9,1.3c-0.5,0.6-0.9,1.2-1.2,1.8c-0.3,0.7-0.4,1.3-0.4,2H255.6z"/>
	<path class="st0" d="M250,439c-1.6,0-3-0.3-4.3-0.8c-1.3-0.5-2.4-1.3-3.3-2.2c-0.9-0.9-1.6-2.1-2.1-3.4c-0.5-1.3-0.7-2.7-0.7-4.2
		c0-1.5,0.3-2.9,0.8-4.2c0.5-1.3,1.2-2.4,2.2-3.4c0.9-0.9,2-1.7,3.3-2.2c1.3-0.5,2.7-0.8,4.2-0.8c1.8,0,3.3,0.3,4.5,0.9
		c1.2,0.6,2.3,1.5,3.1,2.5c0.8,1,1.4,2.2,1.7,3.4c0.4,1.2,0.5,2.5,0.5,3.8v1.6h-15.7c0,0.7,0.2,1.3,0.5,1.9c0.4,0.7,0.8,1.2,1.4,1.7
		c0.6,0.5,1.3,0.8,2,1.1c0.8,0.3,1.6,0.4,2.4,0.4c1.1,0,2-0.3,2.8-0.8c0.8-0.5,1.6-1.2,2.3-2.1l0.2-0.2l3.3,2.5l-0.2,0.2
		C256.8,437.6,253.8,439,250,439 M250,418.4c-1.4,0-2.7,0.3-3.9,0.8c-1.2,0.5-2.2,1.2-3.1,2.1c-0.9,0.9-1.6,2-2,3.2
		c-0.5,1.2-0.7,2.5-0.7,3.9c0,1.4,0.2,2.8,0.7,4c0.5,1.2,1.1,2.3,1.9,3.2c0.8,0.9,1.9,1.6,3.1,2.1c1.2,0.5,2.6,0.8,4.1,0.8
		c3.5,0,6.3-1.2,8.2-3.6l-2.3-1.8c-0.7,0.8-1.4,1.5-2.2,2c-0.9,0.6-2,0.9-3.2,0.9c-0.9,0-1.8-0.1-2.6-0.4c-0.8-0.3-1.6-0.7-2.2-1.2
		c-0.6-0.5-1.2-1.2-1.5-1.9c-0.4-0.7-0.6-1.6-0.6-2.5v-0.3h15.7v-1c0-1.2-0.2-2.5-0.5-3.7c-0.3-1.2-0.9-2.3-1.6-3.2
		c-0.7-0.9-1.7-1.7-2.8-2.3C253.2,418.7,251.7,418.4,250,418.4 M255.9,427.1h-12.4v-0.3c0-0.7,0.2-1.4,0.5-2.1
		c0.3-0.7,0.7-1.4,1.3-1.9c0.5-0.6,1.2-1.1,2-1.4c0.8-0.4,1.7-0.5,2.6-0.5c1,0,1.8,0.2,2.6,0.5c0.7,0.3,1.4,0.7,1.9,1.3
		c0.5,0.5,0.9,1.2,1.1,1.9c0.2,0.7,0.4,1.5,0.4,2.4L255.9,427.1z M244.2,426.4h11.1c0-0.7-0.2-1.3-0.4-1.9c-0.2-0.6-0.6-1.2-1-1.7
		c-0.4-0.5-1-0.9-1.6-1.1c-0.7-0.3-1.4-0.4-2.3-0.4c-0.9,0-1.7,0.2-2.4,0.5c-0.7,0.3-1.3,0.8-1.8,1.3c-0.5,0.5-0.9,1.1-1.2,1.7
		C244.4,425.4,244.2,425.9,244.2,426.4"/>
	<path class="st0" d="M266.5,411.5c0-0.7,0.3-1.4,0.8-1.9c0.5-0.5,1.2-0.8,1.9-0.8s1.4,0.3,1.9,0.8c0.5,0.5,0.8,1.2,0.8,1.9
		s-0.3,1.4-0.8,1.9c-0.5,0.5-1.2,0.8-1.9,0.8s-1.4-0.3-1.9-0.8C266.8,412.9,266.5,412.3,266.5,411.5 M267.4,418.6h3.7v19.6h-3.7
		V418.6z"/>
	<path class="st0" d="M271.4,438.5H267v-20.2h4.3V438.5z M267.7,437.8h3.1v-19h-3.1V437.8z M269.2,414.6c-0.8,0-1.5-0.3-2.1-0.9
		c-0.6-0.6-0.9-1.3-0.9-2.1c0-0.8,0.3-1.5,0.9-2.1c0.6-0.6,1.3-0.9,2.1-0.9c0.8,0,1.5,0.3,2.1,0.9c0.6,0.6,0.9,1.3,0.9,2.1
		c0,0.8-0.3,1.5-0.9,2.1C270.8,414.3,270,414.6,269.2,414.6 M269.2,409.1c-0.7,0-1.2,0.2-1.7,0.7c-0.5,0.5-0.7,1-0.7,1.7
		c0,0.7,0.2,1.2,0.7,1.7c0.5,0.5,1,0.7,1.7,0.7c0.7,0,1.2-0.2,1.7-0.7c0.5-0.5,0.7-1,0.7-1.7c0-0.7-0.2-1.2-0.7-1.7
		C270.4,409.4,269.9,409.1,269.2,409.1"/>
	<path class="st0" d="M280,418.6h3.7v3h0.1c0.5-1,1.3-1.9,2.4-2.5c1.2-0.6,2.5-1,4-1c0.9,0,1.8,0.1,2.7,0.4c0.9,0.3,1.6,0.7,2.3,1.3
		c0.6,0.6,1.2,1.4,1.6,2.3c0.4,0.9,0.6,2.1,0.6,3.4v12.6h-3.7v-11.6c0-0.9-0.1-1.7-0.4-2.3c-0.2-0.6-0.6-1.2-1-1.6
		c-0.4-0.4-0.9-0.7-1.4-0.9c-0.5-0.2-1.1-0.3-1.7-0.3c-0.8,0-1.5,0.1-2.2,0.4c-0.7,0.2-1.2,0.6-1.7,1.2c-0.5,0.5-0.9,1.2-1.2,2
		c-0.3,0.8-0.4,1.8-0.4,2.9v10.1H280V418.6z"/>
	<path class="st0" d="M297.7,438.5h-4.3v-11.9c0-0.9-0.1-1.6-0.4-2.2c-0.2-0.6-0.5-1.1-0.9-1.5c-0.4-0.4-0.8-0.6-1.3-0.8
		c-1.2-0.4-2.5-0.3-3.6,0.1c-0.6,0.2-1.2,0.6-1.6,1.1c-0.5,0.5-0.8,1.1-1.1,1.9c-0.3,0.8-0.4,1.7-0.4,2.8v10.4h-4.3v-20.2h4.3v2.3
		c0.5-0.7,1.2-1.3,2.1-1.8c1.2-0.7,2.6-1,4.2-1c1,0,1.9,0.2,2.8,0.5c0.9,0.3,1.7,0.8,2.4,1.4c0.7,0.6,1.2,1.5,1.6,2.4
		c0.4,1,0.6,2.2,0.6,3.5V438.5z M294,437.8h3.1v-12.3c0-1.2-0.2-2.3-0.6-3.3c-0.4-0.9-0.9-1.7-1.5-2.2c-0.6-0.6-1.3-1-2.2-1.3
		c-0.8-0.3-1.7-0.4-2.6-0.4c-1.5,0-2.8,0.3-3.9,0.9c-1.1,0.6-1.9,1.4-2.3,2.4l-0.1,0.2h-0.6v-3h-3.1v19h3.1v-9.8
		c0-1.2,0.1-2.2,0.4-3c0.3-0.9,0.7-1.6,1.2-2.2c0.5-0.6,1.1-1,1.9-1.3c1.2-0.5,2.7-0.5,4-0.1c0.6,0.2,1.1,0.5,1.5,0.9
		c0.4,0.4,0.8,1,1.1,1.7c0.3,0.7,0.4,1.5,0.4,2.4V437.8z"/>
	<path class="st0" d="M341.8,415.2c-0.8-1.1-1.9-1.9-3.1-2.5c-1.3-0.6-2.6-0.9-3.9-0.9c-1.7,0-3.1,0.3-4.5,0.9s-2.5,1.5-3.4,2.5
		c-1,1.1-1.7,2.3-2.2,3.8c-0.5,1.4-0.8,3-0.8,4.6c0,1.5,0.2,3,0.7,4.4c0.5,1.4,1.2,2.6,2.1,3.6c0.9,1,2.1,1.9,3.4,2.5
		c1.4,0.6,2.9,0.9,4.6,0.9c1.7,0,3.2-0.3,4.4-1c1.3-0.7,2.3-1.7,3.2-2.9l3.3,2.5c-0.2,0.3-0.6,0.7-1.2,1.3c-0.6,0.6-1.3,1.1-2.2,1.7
		c-0.9,0.6-2,1.1-3.3,1.5c-1.3,0.4-2.8,0.6-4.4,0.6c-2.3,0-4.4-0.4-6.3-1.3c-1.9-0.9-3.4-2-4.8-3.5c-1.3-1.4-2.3-3-3-4.9
		c-0.7-1.8-1-3.6-1-5.5c0-2.3,0.4-4.3,1.1-6.3c0.7-1.9,1.8-3.6,3.1-5c1.3-1.4,2.9-2.5,4.8-3.2c1.9-0.8,3.9-1.2,6.2-1.2
		c1.9,0,3.8,0.4,5.7,1.1c1.9,0.7,3.4,1.9,4.6,3.4L341.8,415.2z"/>
	<path class="st0" d="M334.7,439.2c-2.3,0-4.5-0.5-6.4-1.4c-1.9-0.9-3.5-2.1-4.9-3.5c-1.3-1.5-2.4-3.1-3.1-5
		c-0.7-1.8-1.1-3.7-1.1-5.6c0-2.3,0.4-4.4,1.1-6.4c0.8-1.9,1.8-3.6,3.2-5.1c1.4-1.4,3-2.5,4.9-3.3c1.9-0.8,4-1.2,6.3-1.2
		c2,0,3.9,0.4,5.8,1.1c1.9,0.8,3.5,2,4.7,3.5l0.2,0.2l-3.8,2.9l-0.2-0.2c-0.8-1-1.8-1.8-3-2.4c-1.2-0.6-2.5-0.8-3.8-0.8
		c-1.6,0-3.1,0.3-4.4,0.9c-1.3,0.6-2.4,1.4-3.3,2.5c-0.9,1-1.6,2.3-2.2,3.7c-0.5,1.4-0.8,2.9-0.8,4.5c0,1.5,0.2,2.9,0.7,4.3
		c0.5,1.3,1.2,2.5,2.1,3.5c0.9,1,2,1.8,3.3,2.4c1.3,0.6,2.8,0.9,4.5,0.9c1.6,0,3.1-0.3,4.3-1c1.2-0.7,2.3-1.6,3.1-2.8l0.2-0.3
		l3.9,2.9L346,434c-0.2,0.3-0.6,0.8-1.2,1.3c-0.6,0.6-1.3,1.2-2.3,1.7c-0.9,0.6-2.1,1.1-3.4,1.5C337.9,439,336.4,439.2,334.7,439.2
		 M334.9,408.5c-2.2,0-4.3,0.4-6.1,1.1c-1.8,0.7-3.4,1.8-4.7,3.2c-1.3,1.4-2.3,3-3.1,4.9c-0.7,1.9-1.1,3.9-1.1,6.1
		c0,1.8,0.3,3.6,1,5.4c0.7,1.8,1.7,3.4,2.9,4.8c1.3,1.4,2.8,2.5,4.7,3.4c1.8,0.9,3.9,1.3,6.1,1.3c1.6,0,3.1-0.2,4.3-0.6
		c1.3-0.4,2.3-0.9,3.2-1.5c0.9-0.6,1.6-1.1,2.1-1.6c0.4-0.4,0.7-0.8,0.9-1l-2.8-2.1c-0.9,1.2-1.9,2.1-3.1,2.7
		c-1.3,0.7-2.8,1.1-4.6,1.1c-1.7,0-3.3-0.3-4.7-0.9c-1.4-0.6-2.6-1.5-3.5-2.6c-1-1.1-1.7-2.3-2.2-3.7c-0.5-1.4-0.8-2.9-0.8-4.5
		c0-1.7,0.3-3.3,0.8-4.8c0.5-1.5,1.3-2.8,2.3-3.9c1-1.1,2.2-2,3.5-2.6c1.4-0.6,2.9-1,4.6-1c1.4,0,2.8,0.3,4.1,0.9
		c1.2,0.6,2.2,1.3,3.1,2.3l2.8-2.1c-1.1-1.4-2.5-2.4-4.2-3.1C338.6,408.8,336.8,408.5,334.9,408.5"/>
	<path class="st0" d="M352.7,421c1-1,2.3-1.7,3.6-2.2c1.4-0.5,2.8-0.7,4.1-0.7c1.4,0,2.7,0.2,3.7,0.5c1,0.4,1.9,0.8,2.5,1.4
		c0.7,0.6,1.1,1.3,1.5,2.1c0.3,0.8,0.5,1.6,0.5,2.5v10c0,0.7,0,1.3,0,1.9c0,0.6,0.1,1.1,0.1,1.7h-3.3c-0.1-1-0.1-2-0.1-3h-0.1
		c-0.8,1.3-1.8,2.2-2.9,2.7c-1.1,0.5-2.4,0.8-3.9,0.8c-0.9,0-1.8-0.1-2.6-0.4c-0.8-0.2-1.6-0.6-2.2-1.1s-1.1-1.1-1.5-1.8
		c-0.4-0.7-0.5-1.6-0.5-2.5c0-1.3,0.3-2.3,0.8-3.2c0.6-0.9,1.3-1.5,2.3-2.1c1-0.5,2.1-0.9,3.4-1.2c1.3-0.2,2.7-0.4,4.2-0.4h2.7v-0.8
		c0-0.5-0.1-1-0.3-1.5c-0.2-0.5-0.5-0.9-0.9-1.3c-0.4-0.4-0.9-0.7-1.4-1c-0.6-0.2-1.3-0.4-2.1-0.4c-0.7,0-1.3,0.1-1.9,0.2
		c-0.5,0.1-1,0.3-1.5,0.5c-0.4,0.2-0.8,0.4-1.2,0.7c-0.4,0.3-0.7,0.5-1,0.8L352.7,421z M363.2,428.7c-0.9,0-1.8,0-2.7,0.1
		c-0.9,0.1-1.8,0.3-2.5,0.6c-0.8,0.3-1.4,0.7-1.9,1.2c-0.5,0.5-0.7,1.1-0.7,1.9c0,1.1,0.4,1.9,1.1,2.4c0.8,0.5,1.8,0.7,3.1,0.7
		c1,0,1.9-0.2,2.6-0.5c0.7-0.3,1.3-0.8,1.7-1.3c0.4-0.6,0.8-1.2,1-1.8c0.2-0.7,0.3-1.3,0.3-2v-1.2H363.2z"/>
	<path class="st0" d="M358.4,439c-0.9,0-1.8-0.1-2.7-0.4c-0.9-0.3-1.6-0.6-2.3-1.2c-0.7-0.5-1.2-1.2-1.6-1.9
		c-0.4-0.8-0.6-1.7-0.6-2.7c0-1.3,0.3-2.5,0.9-3.4c0.6-0.9,1.4-1.6,2.4-2.2c1-0.6,2.2-1,3.5-1.2c1.3-0.2,2.8-0.4,4.3-0.4h2.4v-0.5
		c0-0.5-0.1-0.9-0.3-1.4c-0.2-0.5-0.4-0.9-0.8-1.2c-0.4-0.4-0.8-0.7-1.3-0.9c-0.5-0.2-1.2-0.3-1.9-0.3c-0.7,0-1.3,0.1-1.8,0.2
		c-0.5,0.1-1,0.3-1.4,0.5c-0.4,0.2-0.8,0.4-1.1,0.7c-0.4,0.3-0.7,0.5-1,0.8l-0.2,0.2l-2.6-2.7l0.2-0.2c1.1-1,2.3-1.7,3.7-2.2
		c1.4-0.5,2.8-0.7,4.2-0.7c1.5,0,2.7,0.2,3.8,0.6c1.1,0.4,2,0.9,2.7,1.5c0.7,0.6,1.2,1.4,1.5,2.2c0.3,0.8,0.5,1.7,0.5,2.6v10
		c0,0.7,0,1.3,0,1.9c0,0.6,0.1,1.1,0.1,1.6l0,0.3h-3.9l0-0.3c-0.1-0.7-0.1-1.4-0.1-2.2c-0.8,1-1.6,1.7-2.6,2.1
		C361.3,438.7,360,439,358.4,439 M362.5,426.3c-1.5,0-2.9,0.1-4.1,0.3c-1.3,0.2-2.4,0.6-3.3,1.1c-0.9,0.5-1.7,1.2-2.2,2
		c-0.5,0.8-0.8,1.8-0.8,3c0,0.9,0.2,1.7,0.5,2.4c0.3,0.7,0.8,1.3,1.4,1.7c0.6,0.5,1.3,0.8,2.1,1.1c0.8,0.2,1.6,0.4,2.5,0.4
		c1.4,0,2.7-0.3,3.8-0.8c1.1-0.5,2-1.4,2.8-2.6l0.1-0.1h0.6v0.3c0,0.9,0,1.8,0.1,2.7h2.7c0-0.4-0.1-0.9-0.1-1.3c0-0.6,0-1.2,0-1.9
		v-10c0-0.8-0.2-1.6-0.5-2.3c-0.3-0.7-0.8-1.4-1.4-2c-0.6-0.6-1.4-1-2.4-1.4c-1-0.3-2.2-0.5-3.6-0.5c-1.3,0-2.7,0.2-4,0.7
		c-1.2,0.4-2.3,1.1-3.3,1.9l1.8,1.9c0.3-0.2,0.5-0.4,0.8-0.6c0.4-0.3,0.8-0.5,1.3-0.8c0.5-0.2,1-0.4,1.5-0.5c0.6-0.1,1.2-0.2,2-0.2
		c0.8,0,1.6,0.1,2.2,0.4c0.6,0.2,1.1,0.6,1.6,1c0.4,0.4,0.7,0.9,0.9,1.4c0.2,0.5,0.3,1.1,0.3,1.6v1.1H362.5z M359.6,436
		c-1.3,0-2.4-0.3-3.2-0.8c-0.9-0.6-1.3-1.5-1.3-2.7c0-0.9,0.3-1.6,0.8-2.1c0.5-0.5,1.2-0.9,2-1.2c0.8-0.3,1.7-0.5,2.6-0.6
		c0.9-0.1,1.9-0.1,2.7-0.1h2.3v1.6c0,0.7-0.1,1.4-0.3,2.1c-0.2,0.7-0.5,1.4-1,1.9c-0.5,0.6-1.1,1.1-1.8,1.4
		C361.6,435.8,360.7,436,359.6,436 M363.2,429c-0.9,0-1.8,0-2.7,0.1c-0.9,0.1-1.7,0.3-2.4,0.5c-0.7,0.3-1.3,0.6-1.7,1.1
		c-0.4,0.4-0.6,1-0.6,1.7c0,1,0.3,1.7,1,2.2c0.7,0.5,1.7,0.7,2.9,0.7c1,0,1.8-0.2,2.5-0.5c0.7-0.3,1.2-0.7,1.6-1.3
		c0.4-0.5,0.7-1.1,0.9-1.7c0.2-0.6,0.3-1.3,0.3-1.9V429H363.2z"/>
	<path class="st0" d="M377.1,418.6h3.7v3h0.1c0.5-1,1.3-1.9,2.4-2.5c1.2-0.6,2.5-1,4-1c0.9,0,1.8,0.1,2.7,0.4
		c0.9,0.3,1.6,0.7,2.3,1.3c0.6,0.6,1.2,1.4,1.5,2.3c0.4,0.9,0.6,2.1,0.6,3.4v12.6h-3.7v-11.6c0-0.9-0.1-1.7-0.4-2.3
		c-0.2-0.6-0.6-1.2-1-1.6c-0.4-0.4-0.9-0.7-1.4-0.9c-0.5-0.2-1.1-0.3-1.7-0.3c-0.8,0-1.5,0.1-2.1,0.4c-0.7,0.2-1.2,0.6-1.7,1.2
		c-0.5,0.5-0.9,1.2-1.2,2c-0.3,0.8-0.4,1.8-0.4,2.9v10.1h-3.7V418.6z"/>
	<path class="st0" d="M394.8,438.5h-4.3v-11.9c0-0.9-0.1-1.6-0.4-2.2c-0.2-0.6-0.5-1.1-0.9-1.5c-0.4-0.4-0.8-0.6-1.3-0.8
		c-1.2-0.4-2.5-0.3-3.6,0.1c-0.6,0.2-1.2,0.6-1.6,1.1c-0.5,0.5-0.8,1.1-1.1,1.9c-0.3,0.8-0.4,1.7-0.4,2.8v10.4h-4.3v-20.2h4.3v2.3
		c0.5-0.7,1.2-1.3,2.1-1.8c1.2-0.7,2.6-1,4.2-1c1,0,1.9,0.2,2.8,0.5c0.9,0.3,1.7,0.8,2.4,1.4c0.7,0.6,1.2,1.5,1.6,2.4
		c0.4,1,0.6,2.2,0.6,3.5V438.5z M391,437.8h3.1v-12.3c0-1.2-0.2-2.3-0.6-3.3c-0.4-0.9-0.9-1.7-1.5-2.2c-0.6-0.6-1.3-1-2.2-1.3
		c-0.8-0.3-1.7-0.4-2.6-0.4c-1.5,0-2.8,0.3-3.9,0.9c-1.1,0.6-1.9,1.4-2.3,2.4l-0.1,0.2h-0.6v-3h-3.1v19h3.1v-9.8
		c0-1.2,0.1-2.2,0.4-3c0.3-0.9,0.7-1.6,1.2-2.2c0.5-0.6,1.2-1,1.9-1.3c1.2-0.5,2.7-0.5,4-0.1c0.6,0.2,1.1,0.5,1.5,0.9
		c0.4,0.4,0.8,1,1.1,1.7c0.3,0.7,0.4,1.5,0.4,2.4V437.8z"/>
	<path class="st0" d="M417.1,423.8c-0.7-0.7-1.4-1.3-2.2-1.6c-0.8-0.4-1.7-0.6-2.7-0.6c-1,0-1.9,0.2-2.7,0.6
		c-0.8,0.4-1.4,0.9-1.9,1.5c-0.5,0.6-0.9,1.4-1.2,2.2c-0.3,0.8-0.4,1.7-0.4,2.6c0,0.9,0.1,1.8,0.5,2.6c0.3,0.8,0.7,1.5,1.3,2.1
		c0.6,0.6,1.2,1.1,2,1.4c0.8,0.3,1.6,0.5,2.6,0.5c1,0,1.9-0.2,2.7-0.6c0.7-0.4,1.4-0.9,2.1-1.6l2.6,2.6c-1,1.1-2.1,1.8-3.4,2.3
		c-1.3,0.5-2.6,0.7-4.1,0.7c-1.5,0-2.9-0.2-4.2-0.7c-1.3-0.5-2.3-1.2-3.2-2.1c-0.9-0.9-1.6-2-2.1-3.2c-0.5-1.3-0.7-2.6-0.7-4.2
		c0-1.5,0.2-2.9,0.7-4.2c0.5-1.3,1.2-2.4,2.1-3.3c0.9-0.9,2-1.6,3.2-2.1c1.3-0.5,2.7-0.8,4.2-0.8c1.4,0,2.8,0.3,4.1,0.8
		c1.3,0.5,2.4,1.3,3.4,2.3L417.1,423.8z"/>
	<path class="st0" d="M412.4,439c-1.6,0-3-0.3-4.3-0.8c-1.3-0.5-2.4-1.2-3.4-2.2c-0.9-0.9-1.7-2-2.2-3.3c-0.5-1.3-0.8-2.7-0.8-4.3
		c0-1.5,0.3-3,0.8-4.3c0.5-1.3,1.2-2.4,2.2-3.4c0.9-0.9,2-1.7,3.3-2.2c1.3-0.5,2.7-0.8,4.3-0.8c1.5,0,2.9,0.3,4.2,0.8
		c1.3,0.5,2.5,1.3,3.5,2.4l0.2,0.2l-3.3,3l-0.2-0.2c-0.7-0.7-1.4-1.2-2.1-1.6c-0.7-0.4-1.6-0.5-2.6-0.5c-1,0-1.8,0.2-2.5,0.5
		c-0.7,0.3-1.3,0.8-1.8,1.4c-0.5,0.6-0.9,1.3-1.1,2.1c-0.3,0.8-0.4,1.7-0.4,2.5c0,0.9,0.1,1.7,0.4,2.5c0.3,0.8,0.7,1.5,1.2,2
		c0.5,0.6,1.1,1,1.9,1.3c0.7,0.3,1.6,0.5,2.5,0.5c1,0,1.9-0.2,2.5-0.5c0.7-0.4,1.4-0.9,2-1.6l0.2-0.2l3.1,3.1l-0.2,0.2
		c-1,1.1-2.2,1.9-3.5,2.4C415.2,438.7,413.8,439,412.4,439 M412.4,418.4c-1.5,0-2.9,0.2-4.1,0.7c-1.2,0.5-2.3,1.2-3.1,2.1
		s-1.5,1.9-2,3.2c-0.5,1.2-0.7,2.6-0.7,4.1c0,1.5,0.2,2.8,0.7,4c0.5,1.2,1.2,2.3,2,3.1c0.9,0.9,1.9,1.5,3.1,2c1.2,0.5,2.6,0.7,4,0.7
		c1.4,0,2.7-0.2,4-0.7c1.1-0.4,2.2-1.1,3-2l-2.2-2.2c-0.6,0.6-1.2,1.1-1.9,1.5c-0.8,0.4-1.7,0.6-2.8,0.6c-1,0-1.9-0.2-2.7-0.5
		c-0.8-0.4-1.5-0.9-2.1-1.5c-0.6-0.6-1-1.4-1.3-2.2c-0.3-0.8-0.5-1.7-0.5-2.7c0-0.9,0.1-1.8,0.4-2.7c0.3-0.9,0.7-1.7,1.2-2.3
		c0.5-0.7,1.2-1.2,2-1.6c0.8-0.4,1.7-0.6,2.8-0.6c1.1,0,2.1,0.2,2.8,0.6c0.7,0.3,1.4,0.8,2,1.5l2.3-2.1c-0.9-0.9-1.9-1.6-3.1-2
		C415.1,418.7,413.8,418.4,412.4,418.4"/>
	<path class="st0" d="M428.8,429.7c0,0.9,0.2,1.6,0.6,2.3c0.4,0.7,0.9,1.3,1.5,1.8c0.6,0.5,1.3,0.9,2.1,1.2c0.8,0.3,1.6,0.4,2.5,0.4
		c1.2,0,2.2-0.3,3-0.8c0.9-0.5,1.6-1.2,2.4-2.1l2.8,2.2c-2.1,2.7-5,4-8.7,4c-1.5,0-2.9-0.3-4.2-0.8c-1.3-0.5-2.3-1.2-3.2-2.2
		c-0.9-0.9-1.5-2-2-3.3c-0.5-1.3-0.7-2.6-0.7-4.1c0-1.5,0.3-2.8,0.8-4.1c0.5-1.3,1.2-2.3,2.1-3.3c0.9-0.9,2-1.6,3.2-2.2
		c1.2-0.5,2.6-0.8,4-0.8c1.7,0,3.2,0.3,4.4,0.9c1.2,0.6,2.2,1.4,3,2.4c0.8,1,1.3,2.1,1.7,3.3c0.3,1.2,0.5,2.5,0.5,3.7v1.3H428.8z
		 M440.6,426.7c0-0.8-0.2-1.6-0.4-2.3c-0.2-0.7-0.6-1.3-1.1-1.8c-0.5-0.5-1.1-0.9-1.8-1.2c-0.7-0.3-1.5-0.4-2.5-0.4
		c-0.9,0-1.7,0.2-2.5,0.5c-0.8,0.3-1.4,0.8-1.9,1.3c-0.5,0.6-0.9,1.2-1.2,1.8c-0.3,0.7-0.4,1.3-0.4,2H440.6z"/>
	<path class="st0" d="M434.9,439c-1.6,0-3-0.3-4.3-0.8c-1.3-0.5-2.4-1.3-3.3-2.2c-0.9-0.9-1.6-2.1-2.1-3.4c-0.5-1.3-0.7-2.7-0.7-4.2
		c0-1.5,0.3-2.9,0.8-4.2c0.5-1.3,1.2-2.4,2.2-3.4c0.9-0.9,2-1.7,3.3-2.2c1.3-0.5,2.7-0.8,4.2-0.8c1.8,0,3.3,0.3,4.5,0.9
		c1.2,0.6,2.3,1.5,3.1,2.5c0.8,1,1.4,2.2,1.7,3.4c0.4,1.3,0.5,2.5,0.5,3.8v1.6h-15.7c0,0.7,0.2,1.3,0.5,1.9c0.4,0.7,0.8,1.2,1.4,1.7
		c0.6,0.5,1.3,0.8,2,1.1c0.8,0.3,1.6,0.4,2.4,0.4c1.1,0,2-0.3,2.8-0.8c0.8-0.5,1.6-1.2,2.3-2.1l0.2-0.2l3.3,2.5l-0.2,0.2
		C441.8,437.6,438.8,439,434.9,439 M435,418.4c-1.4,0-2.7,0.3-3.9,0.8c-1.2,0.5-2.2,1.2-3.1,2.1c-0.9,0.9-1.6,2-2,3.2
		c-0.5,1.2-0.7,2.5-0.7,3.9c0,1.4,0.2,2.8,0.7,4c0.5,1.2,1.1,2.3,1.9,3.2c0.8,0.9,1.9,1.6,3.1,2.1c1.2,0.5,2.6,0.8,4.1,0.8
		c3.5,0,6.2-1.2,8.2-3.6l-2.3-1.8c-0.7,0.8-1.4,1.5-2.2,2c-0.9,0.6-2,0.9-3.2,0.9c-0.9,0-1.8-0.1-2.6-0.4c-0.8-0.3-1.6-0.7-2.2-1.2
		c-0.6-0.5-1.2-1.2-1.5-1.9c-0.4-0.7-0.6-1.6-0.6-2.5v-0.3h15.7v-1c0-1.2-0.2-2.5-0.5-3.7c-0.3-1.2-0.9-2.3-1.6-3.2
		c-0.7-0.9-1.7-1.7-2.8-2.3C438.1,418.7,436.7,418.4,435,418.4 M440.9,427.1h-12.4v-0.3c0-0.7,0.2-1.4,0.5-2.1
		c0.3-0.7,0.7-1.4,1.3-1.9c0.6-0.6,1.2-1.1,2-1.4c0.8-0.4,1.7-0.5,2.6-0.5c1,0,1.8,0.2,2.6,0.5c0.7,0.3,1.4,0.7,1.9,1.3
		c0.5,0.5,0.9,1.2,1.1,1.9c0.2,0.7,0.4,1.5,0.4,2.4L440.9,427.1z M429.2,426.4h11.1c0-0.7-0.2-1.3-0.4-1.9c-0.2-0.6-0.6-1.2-1-1.7
		c-0.4-0.5-1-0.9-1.6-1.1c-0.7-0.3-1.4-0.4-2.3-0.4c-0.9,0-1.7,0.2-2.4,0.5c-0.7,0.3-1.3,0.8-1.8,1.3c-0.5,0.5-0.9,1.1-1.2,1.7
		C429.3,425.4,429.2,425.9,429.2,426.4"/>
	<path class="st0" d="M452,418.6h3.7v3h0.1c0.2-0.5,0.6-1,1-1.4c0.4-0.4,0.9-0.8,1.4-1.1c0.5-0.3,1.1-0.5,1.7-0.7
		c0.6-0.2,1.2-0.3,1.8-0.3c0.6,0,1.2,0.1,1.7,0.2l-0.2,4c-0.3-0.1-0.6-0.2-0.9-0.2c-0.3-0.1-0.6-0.1-0.9-0.1c-1.8,0-3.2,0.5-4.2,1.5
		c-1,1-1.4,2.6-1.4,4.8v9.8H452V418.6z"/>
	<path class="st0" d="M456,438.5h-4.3v-20.2h4.3v2.3c0.2-0.2,0.3-0.4,0.5-0.6c0.4-0.5,0.9-0.8,1.4-1.1c0.5-0.3,1.1-0.6,1.7-0.8
		c1.3-0.4,2.6-0.4,3.7,0l0.2,0.1l-0.2,4.6l-0.4-0.1c-0.3-0.1-0.6-0.1-0.9-0.2c-0.3-0.1-0.6-0.1-0.9-0.1c-1.7,0-3,0.5-3.9,1.4
		c-0.9,1-1.4,2.5-1.4,4.5V438.5z M452.3,437.8h3.1v-9.5c0-2.2,0.5-3.9,1.5-5c1-1.1,2.5-1.6,4.4-1.6c0.3,0,0.6,0,1,0.1
		c0.2,0,0.4,0.1,0.6,0.1l0.1-3.4c-0.9-0.2-2-0.2-3.1,0.1c-0.6,0.2-1.1,0.4-1.6,0.7c-0.5,0.3-0.9,0.6-1.3,1c-0.4,0.4-0.7,0.8-0.9,1.3
		l-0.1,0.2h-0.6v-3h-3.1V437.8z"/>
	<path class="st0" d="M506.2,415.2c-0.8-1.1-1.9-1.9-3.1-2.5c-1.3-0.6-2.6-0.9-3.9-0.9c-1.7,0-3.1,0.3-4.5,0.9
		c-1.3,0.6-2.5,1.5-3.4,2.5c-1,1.1-1.7,2.3-2.2,3.8c-0.5,1.4-0.8,3-0.8,4.6c0,1.5,0.2,3,0.7,4.4c0.5,1.4,1.2,2.6,2.1,3.6
		c0.9,1,2.1,1.9,3.4,2.5c1.4,0.6,2.9,0.9,4.6,0.9c1.7,0,3.2-0.3,4.4-1c1.3-0.7,2.3-1.7,3.2-2.9l3.3,2.5c-0.2,0.3-0.6,0.7-1.2,1.3
		c-0.6,0.6-1.3,1.1-2.2,1.7c-0.9,0.6-2,1.1-3.3,1.5c-1.3,0.4-2.8,0.6-4.4,0.6c-2.3,0-4.4-0.4-6.3-1.3c-1.9-0.9-3.4-2-4.8-3.5
		c-1.3-1.4-2.3-3-3-4.9c-0.7-1.8-1-3.6-1-5.5c0-2.3,0.4-4.3,1.1-6.3c0.7-1.9,1.8-3.6,3.1-5c1.3-1.4,2.9-2.5,4.8-3.2
		c1.9-0.8,3.9-1.2,6.2-1.2c1.9,0,3.8,0.4,5.7,1.1c1.9,0.7,3.4,1.9,4.6,3.4L506.2,415.2z"/>
	<path class="st0" d="M499,439.2c-2.3,0-4.5-0.5-6.4-1.4c-1.9-0.9-3.5-2.1-4.9-3.5c-1.3-1.5-2.4-3.1-3.1-5c-0.7-1.8-1.1-3.7-1.1-5.6
		c0-2.3,0.4-4.4,1.1-6.4c0.8-1.9,1.8-3.6,3.2-5.1c1.4-1.4,3-2.5,4.9-3.3c1.9-0.8,4-1.2,6.3-1.2c2,0,3.9,0.4,5.8,1.1
		c1.9,0.8,3.5,2,4.7,3.5l0.2,0.2l-3.8,2.9l-0.2-0.2c-0.8-1-1.8-1.8-3-2.4c-1.2-0.6-2.5-0.8-3.8-0.8c-1.6,0-3.1,0.3-4.4,0.9
		c-1.3,0.6-2.4,1.4-3.3,2.5c-0.9,1-1.6,2.3-2.2,3.7c-0.5,1.4-0.8,2.9-0.8,4.5c0,1.5,0.2,2.9,0.7,4.3c0.5,1.3,1.2,2.5,2.1,3.5
		c0.9,1,2,1.8,3.3,2.4c1.3,0.6,2.8,0.9,4.5,0.9c1.6,0,3.1-0.3,4.3-1c1.2-0.7,2.3-1.6,3.1-2.8l0.2-0.3l3.9,2.9l-0.2,0.2
		c-0.2,0.3-0.6,0.8-1.2,1.3c-0.6,0.6-1.3,1.2-2.2,1.7c-0.9,0.6-2.1,1.1-3.4,1.5C502.2,439,500.7,439.2,499,439.2 M499.2,408.5
		c-2.2,0-4.3,0.4-6.1,1.1c-1.8,0.7-3.4,1.8-4.7,3.2c-1.3,1.4-2.3,3-3.1,4.9c-0.7,1.9-1.1,3.9-1.1,6.1c0,1.8,0.3,3.6,1,5.4
		c0.7,1.8,1.7,3.4,2.9,4.8c1.3,1.4,2.8,2.5,4.7,3.4c1.8,0.9,3.9,1.3,6.1,1.3c1.6,0,3.1-0.2,4.3-0.6c1.3-0.4,2.3-0.9,3.2-1.5
		c0.9-0.5,1.6-1.1,2.1-1.7c0.4-0.4,0.7-0.7,0.9-1l-2.8-2.1c-0.9,1.2-1.9,2.1-3.1,2.7c-1.3,0.7-2.8,1.1-4.6,1.1
		c-1.7,0-3.3-0.3-4.7-0.9c-1.4-0.6-2.6-1.5-3.5-2.6c-1-1.1-1.7-2.3-2.2-3.7c-0.5-1.4-0.8-2.9-0.8-4.5c0-1.7,0.3-3.3,0.8-4.8
		c0.5-1.5,1.3-2.8,2.3-3.9c1-1.1,2.2-2,3.5-2.6c1.4-0.6,2.9-1,4.6-1c1.4,0,2.8,0.3,4.1,0.9c1.2,0.6,2.2,1.3,3.1,2.3l2.8-2.1
		c-1.1-1.4-2.5-2.4-4.2-3.1C503,408.8,501.1,408.5,499.2,408.5"/>
	<path class="st0" d="M519.8,429.7c0,0.9,0.2,1.6,0.6,2.3c0.4,0.7,0.9,1.3,1.5,1.8c0.6,0.5,1.3,0.9,2.1,1.2c0.8,0.3,1.6,0.4,2.5,0.4
		c1.2,0,2.2-0.3,3-0.8c0.9-0.5,1.6-1.2,2.4-2.1l2.8,2.2c-2.1,2.7-5,4-8.7,4c-1.5,0-2.9-0.3-4.2-0.8c-1.3-0.5-2.3-1.2-3.2-2.2
		c-0.9-0.9-1.5-2-2-3.3c-0.5-1.3-0.7-2.6-0.7-4.1c0-1.5,0.3-2.8,0.8-4.1c0.5-1.3,1.2-2.3,2.1-3.3c0.9-0.9,2-1.6,3.2-2.2
		c1.2-0.5,2.6-0.8,4-0.8c1.7,0,3.2,0.3,4.4,0.9c1.2,0.6,2.2,1.4,3,2.4c0.8,1,1.3,2.1,1.7,3.3c0.3,1.2,0.5,2.5,0.5,3.7v1.3H519.8z
		 M531.5,426.7c0-0.8-0.2-1.6-0.4-2.3c-0.2-0.7-0.6-1.3-1.1-1.8c-0.5-0.5-1.1-0.9-1.8-1.2c-0.7-0.3-1.5-0.4-2.5-0.4
		c-0.9,0-1.7,0.2-2.5,0.5c-0.8,0.3-1.4,0.8-1.9,1.3c-0.5,0.6-0.9,1.2-1.2,1.8c-0.3,0.7-0.4,1.3-0.4,2H531.5z"/>
	<path class="st0" d="M525.9,439c-1.6,0-3-0.3-4.3-0.8c-1.3-0.5-2.4-1.3-3.3-2.2c-0.9-0.9-1.6-2.1-2.1-3.4c-0.5-1.3-0.7-2.7-0.7-4.2
		c0-1.5,0.3-2.9,0.8-4.2c0.5-1.3,1.2-2.4,2.2-3.4c0.9-0.9,2-1.7,3.3-2.2c1.3-0.5,2.7-0.8,4.2-0.8c1.8,0,3.3,0.3,4.5,0.9
		c1.2,0.6,2.3,1.5,3.1,2.5c0.8,1,1.4,2.2,1.7,3.4c0.4,1.3,0.5,2.5,0.5,3.8v1.6h-15.7c0,0.7,0.2,1.3,0.5,1.9c0.4,0.7,0.8,1.2,1.4,1.7
		c0.6,0.5,1.3,0.8,2,1.1c0.8,0.3,1.6,0.4,2.4,0.4c1.1,0,2-0.3,2.8-0.8c0.8-0.5,1.6-1.2,2.3-2.1l0.2-0.2l3.3,2.5l-0.2,0.2
		C532.7,437.6,529.7,439,525.9,439 M525.9,418.4c-1.4,0-2.7,0.3-3.9,0.8c-1.2,0.5-2.2,1.2-3.1,2.1c-0.9,0.9-1.6,2-2,3.2
		c-0.5,1.2-0.7,2.5-0.7,3.9c0,1.4,0.2,2.8,0.7,4c0.5,1.2,1.1,2.3,1.9,3.2c0.8,0.9,1.9,1.6,3.1,2.1c1.2,0.5,2.6,0.8,4.1,0.8
		c3.5,0,6.2-1.2,8.2-3.6l-2.3-1.8c-0.7,0.8-1.4,1.5-2.2,2c-0.9,0.6-2,0.9-3.2,0.9c-0.9,0-1.8-0.1-2.6-0.4c-0.8-0.3-1.6-0.7-2.2-1.2
		c-0.6-0.5-1.2-1.2-1.5-1.9c-0.4-0.7-0.6-1.6-0.6-2.5v-0.3h15.7v-1c0-1.2-0.2-2.5-0.5-3.7c-0.3-1.2-0.9-2.3-1.6-3.2
		c-0.7-0.9-1.7-1.7-2.8-2.3C529,418.7,527.6,418.4,525.9,418.4 M531.8,427.1h-12.4v-0.3c0-0.7,0.2-1.4,0.5-2.1
		c0.3-0.7,0.7-1.4,1.3-1.9c0.6-0.6,1.2-1.1,2-1.4c0.8-0.4,1.7-0.5,2.6-0.5c1,0,1.8,0.2,2.6,0.5c0.7,0.3,1.4,0.7,1.9,1.3
		c0.5,0.5,0.9,1.2,1.1,1.9c0.2,0.7,0.4,1.5,0.4,2.4L531.8,427.1z M520.1,426.4h11.1c0-0.7-0.2-1.3-0.4-1.9c-0.2-0.6-0.6-1.2-1-1.7
		c-0.4-0.5-1-0.9-1.6-1.1c-0.7-0.3-1.4-0.4-2.3-0.4c-0.9,0-1.7,0.2-2.4,0.5c-0.7,0.3-1.3,0.8-1.8,1.3c-0.5,0.5-0.9,1.1-1.2,1.7
		C520.3,425.4,520.1,425.9,520.1,426.4"/>
	<path class="st0" d="M542.9,418.6h3.7v3h0.1c0.5-1,1.3-1.9,2.4-2.5c1.2-0.6,2.5-1,4-1c0.9,0,1.8,0.1,2.7,0.4
		c0.9,0.3,1.6,0.7,2.3,1.3c0.6,0.6,1.2,1.4,1.6,2.3c0.4,0.9,0.6,2.1,0.6,3.4v12.6h-3.7v-11.6c0-0.9-0.1-1.7-0.4-2.3
		c-0.2-0.6-0.6-1.2-1-1.6c-0.4-0.4-0.9-0.7-1.4-0.9c-0.5-0.2-1.1-0.3-1.7-0.3c-0.8,0-1.5,0.1-2.2,0.4c-0.7,0.2-1.2,0.6-1.7,1.2
		c-0.5,0.5-0.9,1.2-1.2,2c-0.3,0.8-0.4,1.8-0.4,2.9v10.1h-3.7V418.6z"/>
	<path class="st0" d="M560.6,438.5h-4.3v-11.9c0-0.9-0.1-1.6-0.4-2.2c-0.2-0.6-0.5-1.1-0.9-1.5c-0.4-0.4-0.8-0.6-1.3-0.8
		c-1.2-0.4-2.5-0.3-3.6,0.1c-0.6,0.2-1.2,0.6-1.6,1.1c-0.5,0.5-0.8,1.1-1.1,1.9c-0.3,0.8-0.4,1.7-0.4,2.8v10.4h-4.3v-20.2h4.3v2.3
		c0.5-0.7,1.2-1.3,2.1-1.8c1.2-0.7,2.6-1,4.2-1c1,0,1.9,0.2,2.8,0.5c0.9,0.3,1.7,0.8,2.4,1.4c0.7,0.6,1.2,1.5,1.6,2.4
		c0.4,1,0.6,2.2,0.6,3.5V438.5z M556.9,437.8h3.1v-12.3c0-1.2-0.2-2.3-0.6-3.3c-0.4-0.9-0.9-1.7-1.5-2.2c-0.6-0.6-1.3-1-2.2-1.3
		c-0.8-0.3-1.7-0.4-2.6-0.4c-1.5,0-2.8,0.3-3.9,0.9c-1.1,0.6-1.9,1.4-2.3,2.4l-0.1,0.2h-0.6v-3h-3.1v19h3.1v-9.8
		c0-1.2,0.1-2.2,0.4-3c0.3-0.9,0.7-1.6,1.2-2.2c0.5-0.6,1.1-1,1.9-1.3c1.2-0.5,2.7-0.5,4-0.1c0.6,0.2,1.1,0.5,1.5,0.9
		c0.4,0.4,0.8,1,1.1,1.7c0.3,0.7,0.4,1.5,0.4,2.4V437.8z"/>
	<path class="st0" d="M579.4,421.8h-5.3v8.9c0,0.6,0,1.1,0,1.6c0,0.5,0.1,1,0.3,1.5c0.2,0.4,0.5,0.8,0.8,1s0.9,0.4,1.6,0.4
		c0.4,0,0.9,0,1.4-0.1c0.5-0.1,0.9-0.2,1.3-0.5v3.4c-0.4,0.2-1,0.4-1.7,0.5c-0.7,0.1-1.2,0.1-1.6,0.1c-1.4,0-2.5-0.2-3.3-0.6
		c-0.8-0.4-1.4-0.9-1.7-1.6c-0.4-0.6-0.6-1.3-0.7-2.1c-0.1-0.8-0.1-1.6-0.1-2.4v-10.2h-4.3v-3.2h4.3v-5.5h3.7v5.5h5.3V421.8z"/>
	<path class="st0" d="M576.2,439c-1.5,0-2.6-0.2-3.5-0.6c-0.8-0.4-1.5-1-1.9-1.7c-0.4-0.7-0.6-1.4-0.7-2.3c-0.1-0.8-0.1-1.6-0.1-2.4
		v-9.9h-4.3v-3.8h4.3v-5.5h4.3v5.5h5.3v3.8h-5.3v8.6c0,0.5,0,1.1,0,1.6c0,0.5,0.1,0.9,0.3,1.3c0.2,0.4,0.4,0.7,0.7,0.9
		c0.5,0.4,1.6,0.4,2.8,0.2c0.4-0.1,0.8-0.2,1.2-0.4l0.5-0.3v4.1l-0.2,0.1c-0.5,0.3-1.1,0.5-1.8,0.6C577.2,438.9,576.6,439,576.2,439
		 M566.4,421.5h4.3V432c0,0.8,0,1.6,0.1,2.3c0.1,0.7,0.3,1.4,0.6,2c0.3,0.6,0.9,1.1,1.6,1.4c0.7,0.4,1.8,0.6,3.2,0.6
		c0.4,0,0.9,0,1.6-0.1c0.6-0.1,1.1-0.2,1.4-0.4v-2.7c-0.3,0.1-0.6,0.2-0.9,0.3c-0.5,0.1-1,0.1-1.4,0.1c-0.8,0-1.4-0.1-1.8-0.4
		c-0.4-0.3-0.7-0.7-0.9-1.2c-0.2-0.5-0.3-1-0.3-1.6c0-0.5,0-1.1,0-1.6v-9.2h5.3v-2.6h-5.3v-5.5h-3.1v5.5h-4.3V421.5z"/>
	<path class="st0" d="M590.1,429.7c0,0.9,0.2,1.6,0.6,2.3c0.4,0.7,0.9,1.3,1.5,1.8c0.6,0.5,1.3,0.9,2.1,1.2c0.8,0.3,1.6,0.4,2.5,0.4
		c1.2,0,2.2-0.3,3-0.8c0.9-0.5,1.6-1.2,2.4-2.1l2.8,2.2c-2.1,2.7-5,4-8.7,4c-1.5,0-2.9-0.3-4.2-0.8c-1.3-0.5-2.3-1.2-3.2-2.2
		c-0.9-0.9-1.5-2-2-3.3c-0.5-1.3-0.7-2.6-0.7-4.1c0-1.5,0.3-2.8,0.8-4.1c0.5-1.3,1.2-2.3,2.1-3.3c0.9-0.9,2-1.6,3.2-2.2
		c1.2-0.5,2.6-0.8,4-0.8c1.7,0,3.2,0.3,4.4,0.9c1.2,0.6,2.2,1.4,3,2.4c0.8,1,1.3,2.1,1.7,3.3s0.5,2.5,0.5,3.7v1.3H590.1z
		 M601.8,426.7c0-0.8-0.2-1.6-0.4-2.3c-0.2-0.7-0.6-1.3-1.1-1.8c-0.5-0.5-1.1-0.9-1.8-1.2c-0.7-0.3-1.5-0.4-2.5-0.4
		c-0.9,0-1.7,0.2-2.5,0.5c-0.8,0.3-1.4,0.8-1.9,1.3c-0.5,0.6-0.9,1.2-1.2,1.8c-0.3,0.7-0.4,1.3-0.4,2H601.8z"/>
	<path class="st0" d="M596.2,439c-1.6,0-3-0.3-4.3-0.8c-1.3-0.5-2.4-1.3-3.3-2.2c-0.9-0.9-1.6-2.1-2.1-3.4c-0.5-1.3-0.7-2.7-0.7-4.2
		c0-1.5,0.3-2.9,0.8-4.2c0.5-1.3,1.2-2.4,2.2-3.4c0.9-0.9,2-1.7,3.3-2.2c1.3-0.5,2.7-0.8,4.2-0.8c1.8,0,3.3,0.3,4.5,0.9
		c1.2,0.6,2.3,1.5,3.1,2.5c0.8,1,1.4,2.2,1.7,3.4c0.4,1.3,0.5,2.5,0.5,3.8v1.6h-15.7c0,0.7,0.2,1.3,0.5,1.9c0.4,0.7,0.8,1.2,1.4,1.7
		c0.6,0.5,1.3,0.8,2,1.1c0.8,0.3,1.6,0.4,2.4,0.4c1.1,0,2-0.3,2.8-0.8c0.8-0.5,1.6-1.2,2.3-2.1l0.2-0.2l3.3,2.5l-0.2,0.2
		C603,437.6,600,439,596.2,439 M596.2,418.4c-1.4,0-2.7,0.3-3.9,0.8c-1.2,0.5-2.2,1.2-3.1,2.1c-0.9,0.9-1.6,2-2,3.2
		c-0.5,1.2-0.7,2.5-0.7,3.9c0,1.4,0.2,2.8,0.7,4c0.5,1.2,1.1,2.3,1.9,3.2c0.8,0.9,1.9,1.6,3.1,2.1c1.2,0.5,2.6,0.8,4.1,0.8
		c3.5,0,6.2-1.2,8.2-3.6l-2.3-1.8c-0.7,0.8-1.4,1.5-2.2,2c-0.9,0.6-2,0.9-3.2,0.9c-0.9,0-1.8-0.1-2.6-0.4c-0.8-0.3-1.6-0.7-2.2-1.2
		c-0.6-0.5-1.2-1.2-1.5-1.9c-0.4-0.7-0.6-1.6-0.6-2.5v-0.3h15.7v-1c0-1.2-0.2-2.5-0.5-3.7c-0.3-1.2-0.9-2.3-1.6-3.2
		c-0.7-0.9-1.7-1.7-2.8-2.3C599.3,418.7,597.9,418.4,596.2,418.4 M602.1,427.1h-12.4v-0.3c0-0.7,0.2-1.4,0.5-2.1
		c0.3-0.7,0.7-1.4,1.3-1.9c0.6-0.6,1.2-1.1,2-1.4c0.8-0.4,1.7-0.5,2.6-0.5c1,0,1.8,0.2,2.6,0.5c0.7,0.3,1.4,0.7,1.9,1.3
		c0.5,0.5,0.9,1.2,1.1,1.9c0.2,0.7,0.4,1.5,0.4,2.4L602.1,427.1z M590.4,426.4h11.1c0-0.7-0.2-1.3-0.4-1.9c-0.2-0.6-0.6-1.2-1-1.7
		c-0.4-0.5-1-0.9-1.6-1.1c-0.7-0.3-1.4-0.4-2.3-0.4c-0.9,0-1.7,0.2-2.4,0.5c-0.7,0.3-1.3,0.8-1.8,1.3c-0.5,0.5-0.9,1.1-1.2,1.7
		C590.6,425.4,590.4,425.9,590.4,426.4"/>
	<path class="st0" d="M613.2,418.6h3.7v3h0.1c0.2-0.5,0.6-1,1-1.4c0.4-0.4,0.9-0.8,1.4-1.1c0.5-0.3,1.1-0.5,1.7-0.7
		c0.6-0.2,1.2-0.3,1.8-0.3c0.6,0,1.2,0.1,1.7,0.2l-0.2,4c-0.3-0.1-0.6-0.2-0.9-0.2c-0.3-0.1-0.6-0.1-0.9-0.1c-1.8,0-3.2,0.5-4.2,1.5
		c-1,1-1.4,2.6-1.4,4.8v9.8h-3.7V418.6z"/>
	<path class="st0" d="M617.3,438.5h-4.3v-20.2h4.3v2.3c0.2-0.2,0.3-0.4,0.5-0.6c0.4-0.5,0.9-0.8,1.4-1.1c0.5-0.3,1.1-0.6,1.7-0.8
		c1.3-0.4,2.6-0.4,3.7,0l0.2,0.1l-0.2,4.6l-0.4-0.1c-0.3-0.1-0.6-0.1-0.9-0.2c-0.3-0.1-0.6-0.1-0.9-0.1c-1.7,0-3,0.5-3.9,1.4
		c-0.9,1-1.4,2.5-1.4,4.5V438.5z M613.6,437.8h3.1v-9.5c0-2.2,0.5-3.9,1.5-5c1-1.1,2.5-1.6,4.4-1.6c0.3,0,0.6,0,1,0.1
		c0.2,0,0.4,0.1,0.6,0.1l0.1-3.4c-0.9-0.2-2-0.2-3.1,0.1c-0.6,0.2-1.1,0.4-1.6,0.7c-0.5,0.3-0.9,0.6-1.3,1c-0.4,0.4-0.7,0.8-0.9,1.3
		l-0.1,0.2h-0.6v-3h-3.1V437.8z"/>
</g>
</svg>
